<svg xmlns="http://www.w3.org/2000/svg" width="3.124in" height="0.73in" viewBox="0 0 224.95 52.571"><defs><style>.cls-1{fill:#fd0;}</style></defs><g id="Layer_1" data-name="Layer 1"><polygon class="cls-1" points="108.312 45.068 108.778 9.166 120.485 9.166 119.024 34.886 118.987 34.886 127.114 9.166 139.539 9.166 124.724 45.068 108.312 45.068"/><polygon class="cls-1" points="133.807 45.068 141.462 9.166 153.517 9.166 145.862 45.068 133.807 45.068"/><path class="cls-1" d="M155.59,45.35c-2.45,0-4.174-.532-5.126-1.582-.534-.591-1.188-1.668-.691-4.2l1.195-6.076h11.4l-.25,1.271a3.734,3.734,0,0,0,.166,2.836,2.5,2.5,0,0,0,1.972.709,2.151,2.151,0,0,0,1.873-.756,5.836,5.836,0,0,0,.82-2.446,14.208,14.208,0,0,0,.243-1.657,3.958,3.958,0,0,0-.18-1.6,2.863,2.863,0,0,0-.806-1.2,5.414,5.414,0,0,0-1.192-.772L156.961,25.7c-2.082-1.081-2.853-2.022-3.133-2.626a6.762,6.762,0,0,1-.076-3.743l.8-4.086a7.29,7.29,0,0,1,2.676-4.645,9.653,9.653,0,0,1,5.957-1.666h13.186c2.452,0,4.18.526,5.136,1.564.534.581,1.187,3.4.691,5.923l-.724,3.682H171.069a4.167,4.167,0,0,0-.191-2.363c-.5-.667-1.952-.69-2.928-.619a2.5,2.5,0,0,0-1.429.524,3.145,3.145,0,0,0-1.024,1.536,1.315,1.315,0,0,0,.167,1.261,3.929,3.929,0,0,0,.757.717,8.1,8.1,0,0,0,1.2.754l9.327,5.069a4.615,4.615,0,0,1,1.192.976,2.879,2.879,0,0,1,.566,1.136,5.976,5.976,0,0,1,.131,1.8,21.4,21.4,0,0,1-.4,2.891l-.831,4.227a9.336,9.336,0,0,1-2.783,5.564,9.17,9.17,0,0,1-6.054,1.78Z"/><path class="cls-1" d="M195.7,45.068l.949-8.265h-4.128l-2.545,8.265H177.654L191.2,9.166h17.873l-1.763,35.9Zm-.852-16.639h3.062l1.179-12.26-.223-.042Z"/><path d="M15.876,45.038,23.51,9.231H42.554a12.8,12.8,0,0,1,3.822.481,4.128,4.128,0,0,1,2.041,1.3,3.8,3.8,0,0,1,.725,2.132,25.6,25.6,0,0,1-.353,5.217,11.692,11.692,0,0,1-2.306,5.273,8.9,8.9,0,0,1-4.635,2.589l-.007-.073a5.11,5.11,0,0,1,3.083,3.361c.483,1.378.405,3.588-.23,6.569-.707,3.315-1.817,5.658-3.3,6.964-1.5,1.327-3.844,2-6.951,2ZM31.521,22.556H35.1a3.36,3.36,0,0,0,2.329-.806,4.141,4.141,0,0,0,1.021-1.963c.464-1.4.514-1.727.328-2.5-.26-1.08-1.766-1-2.328-1h-3.1ZM27.963,36.742h3.576a3.363,3.363,0,0,0,2.329-.8,3.129,3.129,0,0,0,1.021-1.963c.265-1.311.546-1.716.2-2.4a2.3,2.3,0,0,0-2.2-1.1h-3.1Z"/><polygon points="45.264 45.038 52.899 9.231 77.442 9.231 75.759 17.333 62.149 17.333 61.013 22.698 73.343 22.698 71.589 30.698 59.259 30.698 57.569 38.604 71.179 38.604 69.806 45.038 45.264 45.038"/><polygon points="79.02 45.038 84.973 17.333 77.856 17.333 79.538 9.231 105.698 9.231 104.016 17.333 96.899 17.333 90.946 45.038 79.02 45.038"/></g></svg>