<svg width="24" height="17" viewBox="0 0 24 17" fill="none" xmlns="http://www.w3.org/2000/svg">
<rect x="6.85714" width="10.2857" height="17" fill="white"/>
<rect x="17.1429" width="6.85714" height="17" fill="#FF3131"/>
<path fill-rule="evenodd" clip-rule="evenodd" d="M0 17H6.85714V0H0V17Z" fill="#FF3131"/>
<path fill-rule="evenodd" clip-rule="evenodd" d="M13.8101 7.83817C13.6102 8.03639 13.2725 7.85714 13.3279 7.58226L13.7143 5.66654L12.5714 6.2332L12 4.5332L11.4286 6.2332L10.2857 5.66654L10.6721 7.58226C10.7275 7.85714 10.3898 8.03639 10.1899 7.83817L9.91632 7.56688C9.80474 7.45623 9.62383 7.45623 9.51226 7.56688L9.14286 7.9332L8 7.36654L8.57143 8.49987L8.20203 8.86619C8.09045 8.97684 8.09045 9.15624 8.20203 9.26688L9.71429 10.7665H11.4286L11.7143 12.4665H12.2857L12.5714 10.7665H14.2857L15.798 9.26688C15.9095 9.15623 15.9095 8.97684 15.798 8.86619L15.4286 8.49987L16 7.36654L14.8571 7.9332L14.4877 7.56688C14.3762 7.45623 14.1953 7.45623 14.0837 7.56688L13.8101 7.83817Z" fill="#FF3131"/>
</svg>
