<svg width="40" height="28" viewBox="0 0 40 28" fill="none" xmlns="http://www.w3.org/2000/svg">
<g clip-path="url(#clip0_3604_11466)">
<path d="M40 0H0V28H40V0Z" fill="#EE353A"/>
<path fill-rule="evenodd" clip-rule="evenodd" d="M17.3333 16.6667H12.5185C12.2322 16.6667 12 16.4326 12 16.1438V11.8562C12 11.5674 12.2322 11.3333 12.5185 11.3333H17.3333V6.52287C17.3333 6.2341 17.5655 6 17.8519 6H22.1482C22.4346 6 22.6666 6.2341 22.6666 6.52287V11.3333H27.4814C27.7678 11.3333 28 11.5674 28 11.8562V16.1438C28 16.4326 27.7678 16.6667 27.4814 16.6667H22.6666V21.4772C22.6666 21.766 22.4346 22 22.1482 22H17.8519C17.5655 22 17.3333 21.766 17.3333 21.4772V16.6667Z" fill="white"/>
</g>
<defs>
<clipPath id="clip0_3604_11466">
<rect width="40" height="28" fill="white"/>
</clipPath>
</defs>
</svg>
