<svg width="24" height="17" viewBox="0 0 24 17" fill="none" xmlns="http://www.w3.org/2000/svg">
<rect width="24" height="17" fill="#0A17A7"/>
<path fill-rule="evenodd" clip-rule="evenodd" d="M4 3.4L0 0H0.571429L4.57143 2.83333H5.71429L10.2857 0V0.420858C10.2857 0.512361 10.2412 0.598231 10.1661 0.651416L6.28571 3.4V4.53333L9.89783 7.60364C10.031 7.71687 9.9503 7.93333 9.77485 7.93333C9.73546 7.93333 9.69706 7.92113 9.665 7.89843L5.71429 5.1H4.57143L0 7.93333V7.36667L4 4.53333V3.4Z" fill="#FF2E3B"/>
<path d="M3.99999 3.40009V4.53342L0 7.36675V6.77135L3.51142 4.28409V3.62292L0 0.638215V9.03266e-05L3.99999 3.40009Z" fill="white"/>
<path d="M0 9.03266e-05L0.571423 8.57234e-05L4.57142 2.83342H5.71428L10.2857 8.57234e-05V0.420944C10.2857 0.499433 10.2529 0.573778 10.1962 0.626905C10.1868 0.635713 10.1767 0.643938 10.1661 0.651502L6.28571 3.40009V4.53342L9.89783 7.60372C10.031 7.71695 9.95029 7.93342 9.77484 7.93342C9.73545 7.93342 9.69705 7.92121 9.665 7.89851L5.71428 5.10009H4.57142L0 7.93342V8.50476L4.71154 5.58459H5.55771L9.38102 8.29277C9.49594 8.37416 9.63362 8.41792 9.77484 8.41792C10.4039 8.41792 10.6934 7.64183 10.2158 7.23586L6.77428 4.31058V3.64942L10.45 1.04576C10.6535 0.901624 10.7743 0.668916 10.7743 0.420944V0H9.36401L5.57416 2.34892H4.72799L1.41187 0L0 9.03266e-05Z" fill="white"/>
<path fill-rule="evenodd" clip-rule="evenodd" d="M0 2.83333V5.1H4V7.83333C4 8.20152 4.29848 8.5 4.66667 8.5H5.61905C5.98724 8.5 6.28571 8.20152 6.28571 7.83333V5.1H10.1905C10.5587 5.1 10.8571 4.80152 10.8571 4.43333V3.5C10.8571 3.13181 10.5587 2.83333 10.1905 2.83333H6.28571V0H4V2.83333H0Z" fill="white"/>
<path fill-rule="evenodd" clip-rule="evenodd" d="M0 3.4H4.57143V2.83333V0H5.71429V2.83333V3.4H10.2857V4.53333H5.71429V5.1V7.93333H4.57143V5.1V4.53333H0V3.4Z" fill="url(#paint0_linear)"/>
<path fill-rule="evenodd" clip-rule="evenodd" d="M5.14286 13.8834L4.13523 14.4087L4.32767 13.296L3.51248 12.508L4.63905 12.3457L5.14286 11.3334L5.64668 12.3457L6.77325 12.508L5.95806 13.296L6.1505 14.4087L5.14286 13.8834Z" fill="white"/>
<path fill-rule="evenodd" clip-rule="evenodd" d="M17.1429 14.7334L16.3347 14.9681L16.5714 14.1667L16.3347 13.3653L17.1429 13.6L17.951 13.3653L17.7143 14.1667L17.951 14.9681L17.1429 14.7334Z" fill="white"/>
<path fill-rule="evenodd" clip-rule="evenodd" d="M17.1429 3.96669L16.3347 4.20141L16.5714 3.40002L16.3347 2.59863L17.1429 2.83335L17.951 2.59863L17.7143 3.40002L17.951 4.20141L17.1429 3.96669Z" fill="white"/>
<path fill-rule="evenodd" clip-rule="evenodd" d="M20.5714 7.36669L19.7633 7.60141L20 6.80002L19.7633 5.99863L20.5714 6.23335L21.3796 5.99863L21.1429 6.80002L21.3796 7.60141L20.5714 7.36669Z" fill="white"/>
<path fill-rule="evenodd" clip-rule="evenodd" d="M13.7143 8.50002L12.9062 8.73474L13.1429 7.93335L12.9062 7.13197L13.7143 7.36669L14.5224 7.13197L14.2857 7.93335L14.5224 8.73474L13.7143 8.50002Z" fill="white"/>
<path fill-rule="evenodd" clip-rule="evenodd" d="M18.8572 9.91669L18.4531 10.034L18.5714 9.63335L18.4531 9.23266L18.8572 9.35002L19.2612 9.23266L19.1429 9.63335L19.2612 10.034L18.8572 9.91669Z" fill="white"/>
<defs>
<linearGradient id="paint0_linear" x1="0" y1="0" x2="0" y2="7.93333" gradientUnits="userSpaceOnUse">
<stop stop-color="#FF2E3B"/>
<stop offset="1" stop-color="#FC0D1B"/>
</linearGradient>
</defs>
</svg>
