<svg width="24" height="17" viewBox="0 0 24 17" fill="none" xmlns="http://www.w3.org/2000/svg">
<rect width="24" height="17" fill="#05AB41"/>
<path fill-rule="evenodd" clip-rule="evenodd" d="M3.16014 9.06103C2.75129 8.79868 2.75129 8.20119 3.16014 7.93885L11.64 2.49762C11.8593 2.35685 12.1406 2.35685 12.36 2.49762L20.8399 7.93885C21.2487 8.20119 21.2487 8.79868 20.8399 9.06103L12.36 14.5022C12.1406 14.643 11.8593 14.643 11.64 14.5022L3.16014 9.06103Z" fill="#FDD216"/>
<path fill-rule="evenodd" clip-rule="evenodd" d="M12 12.4665C14.2091 12.4665 16 10.6906 16 8.49987C16 6.30914 14.2091 4.5332 12 4.5332C9.79086 4.5332 8 6.30914 8 8.49987C8 10.6906 9.79086 12.4665 12 12.4665Z" fill="#053087"/>
<path d="M8.05419 7.8452C8.10911 7.83434 8.17966 7.82479 8.26917 7.81947C8.52154 7.80446 8.84944 7.82689 9.24241 7.88378C10.0273 7.99741 10.9774 8.23369 11.9248 8.4843C12.8267 8.72289 13.7552 9.09467 14.5166 9.4806C14.8968 9.67327 15.2281 9.86586 15.4892 10.0423C15.5436 10.079 15.5937 10.1142 15.6395 10.1477C15.8045 9.78986 15.9175 9.40347 15.9687 8.99805C15.6945 8.82307 15.3787 8.64475 15.0367 8.47143C14.2131 8.05399 13.2092 7.6511 12.2193 7.38926C11.2749 7.13944 10.2659 6.88662 9.40751 6.76234C9.07313 6.71393 8.74722 6.68276 8.44755 6.68165L8.44394 6.68164C8.25675 7.04097 8.12332 7.43231 8.05419 7.8452Z" fill="white"/>
</svg>
