<svg width="42" height="28" viewBox="0 0 42 28" fill="none" xmlns="http://www.w3.org/2000/svg">
<g clip-path="url(#clip0)">
<path d="M10 -1H33V29H10V-1Z" fill="white"/>
<path d="M21.5 4.88287L19.8963 7.86494C19.7141 8.18884 19.388 8.15896 19.062 7.97849L17.9018 7.37849L18.7672 11.9586C18.9482 12.7952 18.3644 12.7952 18.0768 12.4343L16.0511 10.1729L15.7227 11.3203C15.6843 11.4721 15.5177 11.6299 15.2672 11.5916L12.7058 11.055L13.3782 13.4932C13.522 14.0371 13.6347 14.2618 13.2344 14.4052L12.3198 14.8331L16.7307 18.4044C16.9045 18.5394 16.992 18.7821 16.9309 19.002L16.5449 20.2653C18.0624 20.0908 19.4228 19.8291 20.9426 19.6677C21.0769 19.6522 21.301 19.8733 21.2998 20.0287L21.0985 24.6542H21.8368L21.7205 20.0382C21.7205 19.8829 21.9243 19.6522 22.0574 19.6677C23.5772 19.8291 24.9376 20.0908 26.4563 20.2653L26.0691 19.0032C26.0408 18.8948 26.0448 18.7806 26.0805 18.6745C26.1163 18.5683 26.1823 18.4749 26.2705 18.4056L30.6802 14.8319L29.7668 14.4052C29.3653 14.2618 29.4768 14.0371 29.6218 13.4944L30.2942 11.0562L27.7328 11.5916C27.4823 11.6299 27.3157 11.4721 27.2773 11.3203L26.9489 10.1729L24.9232 12.4343C24.6356 12.7952 24.0518 12.7952 24.2328 11.9586L25.0982 7.37849L23.938 7.97849C23.612 8.15896 23.2859 8.18884 23.1037 7.86494L21.5 4.88287ZM-2 -1H9.75V29H-2V-1ZM33.25 -1H45V29H33.25V-1Z" fill="#FF0000"/>
<rect x="-1" y="-1" width="11" height="29" fill="#0A17A7"/>
</g>
<defs>
<clipPath id="clip0">
<path d="M0 2C0 0.895431 0.895431 0 2 0H40C41.1046 0 42 0.895431 42 2V26C42 27.1046 41.1046 28 40 28H2C0.89543 28 0 27.1046 0 26V2Z" fill="white"/>
</clipPath>
</defs>
</svg>
