<svg width="24" height="17" viewBox="0 0 24 17" fill="none" xmlns="http://www.w3.org/2000/svg">
<g clip-path="url(#clip0_3253_11712)">
<rect width="24" height="17" fill="#375F89"/>
<path d="M-3.19823 6.10049C-2.4779 6.52989 -1.52584 6.51663 -0.849205 7.00765C-0.481094 7.2747 -0.227522 7.66963 0.15383 7.91945C0.361058 8.05529 0.610658 8.1527 0.74572 8.35614C1.11648 8.91475 0.443817 9.39649 0.371651 9.92926C0.294851 10.4971 0.481554 11.1008 0.874161 11.5329C1.16812 11.8562 1.45943 12.0583 1.68387 12.442C1.90831 12.825 2.0778 13.2378 2.18903 13.6639C2.68095 15.5458 1.69976 17.3993 2.06986 19.2699C2.18241 19.8385 2.41612 20.3838 2.74715 20.8675C2.88818 21.0736 3.79322 22.0789 3.64492 21.3387C3.58467 21.0392 3.34566 20.7715 3.25695 20.4753C3.15433 20.1333 3.13645 19.7649 3.20266 19.415C3.36155 18.5781 3.89386 17.8571 4.41226 17.1673C4.98164 16.4093 5.55102 15.6519 6.1204 14.8938C6.36139 14.5737 6.61695 14.2404 6.98837 14.0695C7.35383 13.9018 7.84178 13.876 8.03642 13.5354C8.32376 13.0324 7.67163 12.3433 8.00994 11.8695C8.24829 11.5355 8.89314 11.4785 8.90043 11.0736C8.9044 10.8629 8.71041 10.7039 8.53496 10.5773C7.48956 9.82588 6.44415 9.07444 5.39874 8.323C4.57447 7.7306 3.36023 7.11765 2.35653 7.33898C2.2943 7.12229 1.9818 7.0653 1.76729 7.15609C1.55278 7.24687 1.39918 7.43042 1.21314 7.56693C1.0271 7.70343 0.757637 7.79156 0.562989 7.66566C0.247182 7.46223 0.427927 6.93874 0.172368 6.66772C-0.0699495 6.41061 -0.56915 6.5226 -0.800212 6.25621C-1.01009 6.01369 -0.817426 5.70555 -0.939909 5.45574C-1.08954 5.15026 -1.37356 5.48489 -1.67745 5.54983C-1.92772 5.60351 -2.21108 5.57369 -2.40441 5.41266C-2.71293 5.15622 -2.78841 4.43129 -2.57522 4.09599C-2.30377 3.66925 -1.52518 3.18353 -0.996184 3.23057C-0.565839 3.26901 0.00883659 3.99461 0.363044 3.89388C0.74572 3.78455 0.835099 2.96817 1.0026 2.67859C1.33695 2.09878 1.79709 1.59517 2.25391 1.10282C2.76768 0.548187 3.29071 -0.013736 3.94086 -0.415962C6.29936 -1.87036 -24.832 -6.80367 -3.19823 6.10049Z" fill="#61BF5E"/>
<path d="M14.4109 -0.814747C14.3063 -0.74053 14.0647 -0.735893 13.9865 -0.627219C13.8475 -0.434389 14.1011 -0.244872 14.2639 -0.146138C14.405 -0.0599938 14.5566 -0.052043 14.55 0.135486C14.5427 0.358797 14.2057 0.511869 14.0124 0.523797C13.8177 0.535724 13.302 0.39723 13.1854 0.574819C13.1384 0.645722 13.1973 0.878311 13.1907 0.966443C13.1781 1.13144 13.1404 1.29512 13.0788 1.44951C13.0272 1.57939 12.957 1.71788 12.9974 1.85174C13.1212 2.26191 14.1295 2.24932 14.4096 2.0439C14.6777 1.8471 14.5619 1.34283 14.8432 1.08307C14.9618 0.973733 15.1127 0.902167 15.2306 0.789517C15.3842 0.643072 15.51 0.368074 15.7463 0.32964C15.9913 0.289882 16.2945 0.541024 16.4613 0.696083C16.6236 0.847166 16.7613 1.02078 16.9228 1.17319C17.036 1.28054 17.1479 1.37596 17.228 1.51047C17.2744 1.58734 17.3253 1.86698 17.43 1.88023C17.475 1.88619 17.5134 1.84975 17.5432 1.81728C17.6769 1.66951 17.8199 1.49391 17.7861 1.30042C17.7511 1.09897 17.5418 0.976382 17.3551 0.87831C17.1764 0.784877 16.5938 0.226268 17.1492 0.356809C17.5167 0.442953 17.7822 0.828613 17.9292 1.13542C18.0079 1.29975 18.0271 1.68873 18.2774 1.70927C18.5793 1.73445 18.5316 1.3077 18.7084 1.18114C18.8759 1.0612 19.1606 1.10228 19.24 1.28783C19.3135 1.46011 19.193 1.65758 19.2268 1.84113C19.2778 2.11945 19.6274 2.22613 19.9154 2.28643C20.4291 2.39511 20.8025 2.80926 20.3318 3.24462C20.0014 3.5501 19.3354 3.38377 19.0017 3.17371C18.7256 3.0001 18.5495 2.72709 18.2463 2.96763C18.0483 3.12468 17.8749 3.36389 17.5935 3.37516C17.3081 3.38576 17.0863 3.13992 16.9592 2.89474C16.8321 2.64956 16.7427 2.37125 16.5229 2.19698C16.1747 1.92198 15.6602 2.01939 15.2246 2.13203C14.7929 2.24336 14.3606 2.35468 13.9289 2.46667C13.6899 2.5283 13.3907 2.61378 13.2688 2.83311C13.1053 3.12865 13.0802 3.42088 12.8286 3.68726C12.579 3.95232 12.2446 4.14184 12.0314 4.43473C11.707 4.87936 11.7395 5.44791 11.713 5.96213C11.6839 6.52935 12.0129 7.04489 12.3406 7.4988C12.5604 7.80362 12.8186 8.10379 13.1715 8.25488C14.0587 8.63524 15.114 8.01368 15.9284 8.66241C16.1972 8.87644 16.2905 9.19517 16.4719 9.47216C16.8738 10.0851 17.1572 10.8299 16.95 11.5502C16.846 11.912 16.6931 12.2745 16.7295 12.6476C16.754 12.8954 16.8606 13.128 16.9427 13.3645C17.2479 14.2406 17.236 15.2279 17.7431 16.0131C17.8576 16.1907 18.0086 16.3617 18.2152 16.4286C18.4072 16.4909 18.617 16.4538 18.8157 16.416C19.2765 16.3285 19.7598 16.2285 19.9425 15.7752C20.1391 15.2862 20.4814 14.9204 20.8191 14.5089C20.9932 14.2969 21.1759 14.0596 21.1667 13.79C21.1574 13.5302 20.9694 13.2698 21.068 13.0279C21.1574 12.8072 21.4375 12.7257 21.6023 12.5495C21.791 12.3487 21.8076 12.0472 21.7579 11.7808C21.7089 11.5144 21.6043 11.2573 21.5871 10.9876C21.5613 10.5914 21.7281 10.2017 21.9711 9.88035C22.2134 9.55896 22.5292 9.29589 22.8417 9.03614C23.325 8.63391 23.5879 8.36355 23.7216 7.7632C23.756 7.60946 23.7587 7.41464 23.6183 7.33314C23.4296 7.2238 23.2171 7.42458 23.0072 7.4882C22.8 7.55181 22.5676 7.47031 22.4041 7.33248C22.2405 7.19465 22.1326 7.00712 22.03 6.8229C21.7559 6.32857 21.5004 5.82496 21.2627 5.31406C21.1528 5.07749 21.074 4.78659 20.9257 4.57123C20.8019 4.39099 20.6417 4.26642 20.5496 4.05437C20.4437 3.81052 20.6807 3.75154 20.8343 3.90859C20.9641 4.04112 21.0846 4.32804 21.1925 4.49171C21.4176 4.83099 21.6089 5.18219 21.8426 5.51815C22.038 5.79845 22.2558 6.0211 22.3418 6.35905C22.4107 6.6314 22.508 6.9488 22.7834 7.04157C23.0145 7.11977 23.2634 6.99784 23.4687 6.86995C24.1036 6.47501 24.6154 5.90911 25.1583 5.40285C25.2331 5.33261 25.3125 5.25508 25.3258 5.15502C25.3384 5.06093 25.2867 4.96749 25.2139 4.90388C25.1411 4.84027 25.049 4.80051 24.9583 4.7634C24.6306 4.62955 24.2817 4.47382 23.9315 4.4069C23.6415 4.3519 23.5005 4.30021 23.2952 4.06365C23.2052 3.96027 22.8821 3.59714 23.0893 3.46992C23.2178 3.39106 23.519 3.69323 23.6031 3.75883C23.8646 3.96226 24.1321 4.13322 24.4558 4.23328C24.7187 4.31413 25.0246 4.42214 25.298 4.44268C25.682 4.47184 26.0753 4.39364 26.4367 4.56063C26.638 4.6534 26.7989 4.81111 26.9426 4.97545C27.31 5.39623 27.6384 5.89255 27.8238 6.41471C31.7172 17.384 62.504 -34.774 14.4109 -0.814747Z" fill="#61BF5E"/>
<path d="M23.6838 12.026C23.7619 12.3355 23.6514 12.6582 23.5156 12.9491C23.3799 13.2393 23.2157 13.5269 23.1806 13.843C23.1575 14.0517 23.18 14.2923 23.0224 14.4374C22.8615 14.5858 22.5715 14.5374 22.4305 14.3711C22.2895 14.2048 22.2816 13.9623 22.3577 13.7615C22.4914 13.4083 22.5384 13.295 22.4894 12.9305C22.455 12.6747 22.457 12.5992 22.6689 12.4455C22.8523 12.3116 22.9973 12.2718 23.1528 12.0936C23.2972 11.9286 23.5719 11.5873 23.6832 12.0267L23.6838 12.026Z" fill="#61BF5E"/>
</g>
<defs>
<clipPath id="clip0_3253_11712">
<rect width="24" height="17" fill="white"/>
</clipPath>
</defs>
</svg>
