<svg width="24" height="17" viewBox="0 0 24 17" fill="none" xmlns="http://www.w3.org/2000/svg">
<rect width="24" height="17" fill="#0A17A7"/>
<path fill-rule="evenodd" clip-rule="evenodd" d="M4 3.4L0 0H0.571429L4.57143 2.83333H5.71429L10.2857 0V0.420858C10.2857 0.512361 10.2412 0.598231 10.1661 0.651416L6.28571 3.4V4.53333L9.89783 7.60364C10.031 7.71687 9.9503 7.93333 9.77485 7.93333C9.73546 7.93333 9.69706 7.92113 9.665 7.89843L5.71429 5.1H4.57143L0 7.93333V7.36667L4 4.53333V3.4Z" fill="#FF2E3B"/>
<path d="M3.99999 3.40009V4.53342L0 7.36675V6.77135L3.51142 4.28409V3.62292L0 0.638215V9.03266e-05L3.99999 3.40009Z" fill="white"/>
<path d="M0 9.03266e-05L0.571423 8.57234e-05L4.57142 2.83342H5.71428L10.2857 8.57234e-05V0.420944C10.2857 0.499433 10.2529 0.573778 10.1962 0.626905C10.1868 0.635713 10.1767 0.643938 10.1661 0.651502L6.28571 3.40009V4.53342L9.89783 7.60372C10.031 7.71695 9.95029 7.93342 9.77484 7.93342C9.73545 7.93342 9.69705 7.92121 9.665 7.89851L5.71428 5.10009H4.57142L0 7.93342V8.50476L4.71154 5.58459H5.55771L9.38102 8.29277C9.49594 8.37416 9.63362 8.41792 9.77484 8.41792C10.4039 8.41792 10.6934 7.64183 10.2158 7.23586L6.77428 4.31058V3.64942L10.45 1.04576C10.6535 0.901624 10.7743 0.668916 10.7743 0.420944V0H9.36401L5.57416 2.34892H4.72799L1.41187 0L0 9.03266e-05Z" fill="white"/>
<path fill-rule="evenodd" clip-rule="evenodd" d="M0 2.83333V5.1H4V7.83333C4 8.20152 4.29848 8.5 4.66667 8.5H5.61905C5.98724 8.5 6.28571 8.20152 6.28571 7.83333V5.1H10.1905C10.5587 5.1 10.8571 4.80152 10.8571 4.43333V3.5C10.8571 3.13181 10.5587 2.83333 10.1905 2.83333H6.28571V0H4V2.83333H0Z" fill="white"/>
<path fill-rule="evenodd" clip-rule="evenodd" d="M0 3.4H4.57143V2.83333V0H5.71429V2.83333V3.4H10.2857V4.53333H5.71429V5.1V7.93333H4.57143V5.1V4.53333H0V3.4Z" fill="url(#paint0_linear)"/>
<path fill-rule="evenodd" clip-rule="evenodd" d="M17.2367 14.7335L16.4286 14.9682L16.6653 14.1668L16.4286 13.3654L17.2367 13.6001L18.0448 13.3654L17.8081 14.1668L18.0448 14.9682L17.2367 14.7335Z" fill="#CA1931"/>
<path fill-rule="evenodd" clip-rule="evenodd" d="M17.2367 3.96669L16.4286 4.20141L16.6653 3.40002L16.4286 2.59863L17.2367 2.83335L18.0448 2.59863L17.8081 3.40002L18.0448 4.20141L17.2367 3.96669Z" fill="#CA1931"/>
<path fill-rule="evenodd" clip-rule="evenodd" d="M20.6653 7.36669L19.8571 7.60141L20.0938 6.80002L19.8571 5.99863L20.6653 6.23335L21.4734 5.99863L21.2367 6.80002L21.4734 7.60141L20.6653 7.36669Z" fill="#CA1931"/>
<path fill-rule="evenodd" clip-rule="evenodd" d="M13.8081 8.50007L13 8.73479L13.2367 7.9334L13 7.13202L13.8081 7.36674L14.6162 7.13202L14.3795 7.9334L14.6162 8.73479L13.8081 8.50007Z" fill="#CA1931"/>
<defs>
<linearGradient id="paint0_linear" x1="0" y1="0" x2="0" y2="7.93333" gradientUnits="userSpaceOnUse">
<stop stop-color="#FF2E3B"/>
<stop offset="1" stop-color="#FC0D1B"/>
</linearGradient>
</defs>
</svg>
