<?xml version="1.0" encoding="utf-8"?>
<!-- Generator: Adobe Illustrator 25.3.1, SVG Export Plug-In . SVG Version: 6.00 Build 0)  -->
<svg version="1.1" id="Layer_1" xmlns="http://www.w3.org/2000/svg" xmlns:xlink="http://www.w3.org/1999/xlink" x="0px" y="0px"
	 width="75px" height="50px" viewBox="0 0 75 50" style="enable-background:new 0 0 75 50;" xml:space="preserve">
<style type="text/css">
	.st0{fill:#4F4F51;}
	.st1{fill:#E8661C;}
	.st2{fill:#277F3B;}
</style>
<g>
	<path class="st0" d="M61.51,12.69c-0.06,0.33-0.17,0.64-0.26,0.96c-1.51,5.41-3,10.84-4.5,16.25c-0.09,0.3-0.18,0.61-0.26,0.91
		c-0.03,0.11-0.08,0.14-0.18,0.14c-1.11,0-2.23,0-3.34,0c-0.12,0-0.15-0.02-0.12-0.15c0.46-1.64,0.91-3.28,1.37-4.93
		c0.78-2.77,1.54-5.55,2.31-8.32c0.44-1.6,0.88-3.19,1.32-4.79c0-0.03,0.02-0.05,0.02-0.08C59.09,12.69,60.3,12.69,61.51,12.69z"/>
	<path class="st0" d="M30.78,37.29c-0.14-0.58-0.26-1.16-0.4-1.73c-0.03-0.11-0.05-0.21-0.08-0.38c-0.05,0.11-0.06,0.17-0.09,0.24
		c-0.26,0.56-0.52,1.14-0.76,1.7c-0.03,0.08-0.08,0.11-0.15,0.09c-0.08,0-0.17,0-0.24,0c-0.11,0.02-0.12-0.03-0.08-0.12
		c0.35-0.74,0.68-1.47,1.02-2.22c0.17-0.36,0.33-0.73,0.52-1.09c0.18,0.82,0.38,1.64,0.53,2.49c0.58-0.84,1.14-1.67,1.7-2.49
		c0.05,0.05,0.03,0.09,0.03,0.14c-0.02,1.05-0.03,2.11-0.05,3.16c0,0.11-0.03,0.14-0.14,0.14c-0.36,0-0.36,0-0.35-0.35
		c0.02-0.55,0-1.11,0.06-1.67c-0.09,0.14-0.17,0.27-0.26,0.41c-0.38,0.52-0.74,1.03-1.13,1.57c-0.03,0.05-0.08,0.08-0.08,0.12
		C30.84,37.29,30.81,37.29,30.78,37.29z"/>
	<path class="st0" d="M38.43,37.29c-0.5-0.65-1.02-1.31-1.52-1.96c-0.09-0.12-0.18-0.26-0.26-0.4c-0.05,0.08-0.06,0.17-0.08,0.23
		c-0.15,0.64-0.3,1.28-0.46,1.92c-0.02,0.09-0.06,0.14-0.17,0.14c-0.36,0-0.36,0-0.27-0.35c0.23-0.97,0.47-1.96,0.7-2.93
		c0.02-0.05,0.03-0.09,0.05-0.17c0.32,0.41,0.62,0.81,0.93,1.2c0.3,0.4,0.62,0.76,0.88,1.2c0.05-0.02,0.05-0.06,0.05-0.09
		c0.17-0.68,0.33-1.35,0.49-2.04c0.03-0.11,0.06-0.15,0.18-0.14c0.11,0.02,0.26-0.05,0.32,0.03c0.05,0.06-0.03,0.2-0.06,0.3
		c-0.24,1-0.47,2.01-0.71,3.01c0,0.02-0.02,0.05-0.02,0.06C38.46,37.29,38.44,37.29,38.43,37.29z"/>
	<path class="st0" d="M8.63,37.29c-0.59-0.79-1.23-1.54-1.79-2.36c-0.08,0.35-0.17,0.68-0.24,1.02c-0.09,0.38-0.18,0.76-0.27,1.16
		c-0.02,0.08-0.05,0.11-0.14,0.11c-0.38,0-0.38,0.02-0.29-0.35c0.23-0.97,0.47-1.96,0.7-2.93c0.02-0.05,0.03-0.09,0.05-0.17
		c0.61,0.82,1.25,1.58,1.84,2.42c0.05-0.18,0.09-0.36,0.14-0.55c0.12-0.53,0.26-1.08,0.38-1.61c0.02-0.09,0.06-0.14,0.17-0.12
		c0.11,0.02,0.27-0.03,0.32,0.03c0.06,0.06-0.03,0.21-0.05,0.32c-0.24,1.02-0.49,2.05-0.73,3.07C8.66,37.29,8.64,37.29,8.63,37.29z"
		/>
	<path class="st0" d="M49.56,37.29c-0.12-0.21-0.29-0.4-0.44-0.59c-0.35-0.47-0.71-0.93-1.08-1.38c-0.09-0.12-0.17-0.24-0.27-0.4
		c-0.08,0.3-0.14,0.59-0.21,0.87c-0.11,0.43-0.21,0.87-0.3,1.29c-0.03,0.11-0.08,0.12-0.17,0.12c-0.35,0-0.35,0-0.27-0.33
		c0.24-0.99,0.47-1.99,0.71-2.98c0.02-0.05,0.02-0.08,0.06-0.12c0.59,0.81,1.23,1.57,1.82,2.39c0.02-0.06,0.03-0.11,0.05-0.15
		c0.15-0.65,0.32-1.32,0.47-1.98c0.03-0.12,0.08-0.15,0.2-0.15c0.33,0.02,0.33,0,0.26,0.33c-0.24,0.99-0.47,1.99-0.71,2.98
		c-0.02,0.03-0.02,0.08-0.02,0.11C49.62,37.29,49.59,37.29,49.56,37.29z"/>
	<path class="st0" d="M2.62,36.25c0.11-0.46,0.21-0.91,0.33-1.37c0.08-0.29,0.15-0.59,0.21-0.88c0.02-0.09,0.06-0.12,0.15-0.11
		c0.12,0.02,0.3-0.06,0.36,0.03c0.08,0.09-0.03,0.24-0.06,0.36c-0.14,0.56-0.27,1.13-0.4,1.7C3.2,36.09,3.2,36.2,3.2,36.29
		c0.02,0.3,0.18,0.5,0.5,0.52c0.56,0.05,0.94-0.2,1.11-0.74c0.12-0.41,0.21-0.82,0.3-1.23c0.06-0.27,0.14-0.56,0.2-0.84
		c0.02-0.09,0.05-0.12,0.15-0.12c0.09,0.02,0.18,0.02,0.27,0c0.11-0.02,0.14,0.03,0.11,0.14c-0.11,0.43-0.21,0.85-0.3,1.28
		c-0.06,0.26-0.12,0.52-0.2,0.78c-0.18,0.65-0.56,1.09-1.25,1.22c-0.02,0-0.03,0.02-0.03,0.02c-0.23,0-0.46,0-0.68,0
		c-0.06-0.03-0.12-0.02-0.18-0.03c-0.27-0.03-0.5-0.21-0.53-0.55c0-0.05,0.02-0.09-0.02-0.14C2.62,36.47,2.62,36.37,2.62,36.25z"/>
	<path class="st0" d="M64.11,37.29c-0.08-0.02-0.14-0.05-0.21-0.06c-0.55-0.18-0.87-0.67-0.85-1.28c0.05-1.19,1.09-2.19,2.28-2.16
		c0.29,0,0.55,0.09,0.79,0.26c0.08,0.06,0.11,0.11,0.08,0.2c-0.05,0.14-0.08,0.27-0.12,0.41c-0.08-0.06-0.14-0.12-0.21-0.17
		c-0.47-0.3-0.96-0.29-1.41-0.02c-0.56,0.33-0.84,0.85-0.82,1.51c0.02,0.53,0.49,0.88,1.06,0.79c0.3-0.05,0.56-0.15,0.82-0.3
		c0.03-0.03,0.06-0.06,0.14-0.06c-0.05,0.18-0.09,0.36-0.14,0.55c-0.02,0.05-0.06,0.06-0.11,0.08c-0.2,0.12-0.43,0.17-0.65,0.24
		C64.55,37.29,64.32,37.29,64.11,37.29z"/>
	<path class="st0" d="M42.11,37.29c-0.08-0.03-0.17-0.06-0.23-0.11c-0.23-0.12-0.3-0.32-0.33-0.56c0-0.06,0.02-0.09,0.08-0.11
		c0.11-0.05,0.21-0.09,0.32-0.14c0.05-0.02,0.08-0.03,0.09,0.03c0.03,0.2,0.14,0.33,0.35,0.36c0.21,0.05,0.43,0.02,0.61-0.14
		c0.3-0.26,0.27-0.58-0.06-0.81c-0.14-0.09-0.29-0.18-0.44-0.27c-0.53-0.32-0.52-0.76-0.23-1.23c0.27-0.46,0.93-0.67,1.44-0.49
		c0.18,0.06,0.32,0.18,0.38,0.36c0.03,0.08,0.02,0.14-0.08,0.17c-0.05,0.02-0.09,0.05-0.15,0.08c-0.06,0.03-0.14,0.08-0.2,0.08
		c-0.08,0-0.08-0.11-0.12-0.15c-0.17-0.18-0.52-0.17-0.73,0.03c-0.21,0.2-0.21,0.44,0,0.64c0.11,0.09,0.23,0.17,0.35,0.23
		c0.14,0.08,0.27,0.17,0.4,0.27c0.18,0.17,0.24,0.36,0.2,0.61c-0.11,0.56-0.43,0.93-0.97,1.09c-0.03,0-0.05,0.02-0.08,0.03
		C42.49,37.29,42.3,37.29,42.11,37.29z"/>
	<path class="st0" d="M43.53,12.76c3.27,0,6.54,0,9.79,0c0.27,0,0.53,0.03,0.79,0.14c0.47,0.21,0.73,0.7,0.7,1.23
		c-0.03,0.4-0.17,0.76-0.27,1.14c-0.61,2.19-1.2,4.38-1.82,6.57c-0.3,1.05-1.02,1.67-2.08,1.87c-0.12,0.02-0.24,0.02-0.36,0.02
		c-5.35,0-10.7,0-16.06,0c-0.15,0-0.21,0.05-0.26,0.2c-0.64,2.33-1.29,4.65-1.93,6.99c-0.03,0.11-0.08,0.14-0.18,0.14
		c-1.11,0-2.22,0-3.33,0c-0.17,0-0.17,0-0.12-0.17c0.93-3.31,1.84-6.64,2.77-9.96c0.06-0.21,0.12-0.43,0.18-0.64
		c0.03-0.11,0.08-0.12,0.17-0.12c1.13,0,2.25,0,3.38,0c4.83,0,9.68,0,14.52,0c0.14,0,0.18-0.03,0.23-0.17
		c0.32-1.16,0.64-2.33,0.96-3.48c0.05-0.18,0.05-0.18-0.14-0.18c-5.93,0-11.86,0-17.79,0c-0.21,0-0.21,0-0.15-0.2
		c0.3-1.08,0.59-2.16,0.9-3.22c0.03-0.12,0.08-0.15,0.2-0.15C36.89,12.76,40.21,12.76,43.53,12.76z"/>
	<path class="st0" d="M15.21,31.05c-3.09,0-6.19,0-9.27,0c-0.17,0-0.35,0-0.52-0.05c-0.67-0.17-1.06-0.79-0.93-1.49
		c0.11-0.59,0.3-1.16,0.47-1.73c1.38-4.96,2.75-9.91,4.14-14.87c0.03-0.11,0.08-0.14,0.18-0.14c1.11,0,2.22,0,3.33,0
		c0.17,0,0.17,0,0.12,0.15c-0.84,3.03-1.69,6.07-2.52,9.09c-0.49,1.76-0.99,3.54-1.47,5.31c-0.05,0.15-0.05,0.15,0.12,0.15
		c4.74,0,9.5,0,14.25,0c0.12,0,0.17-0.03,0.2-0.15c1.34-4.82,2.68-9.62,4.01-14.44c0.03-0.09,0.06-0.12,0.17-0.12
		c1.13,0,2.25,0,3.38,0c0.12,0,0.14,0.03,0.11,0.14c-0.93,3.3-1.84,6.6-2.75,9.91c-0.64,2.31-1.29,4.62-1.93,6.95
		c-0.2,0.7-0.64,1.13-1.35,1.28c-0.14,0.03-0.27,0.02-0.41,0.02C21.4,31.05,18.3,31.05,15.21,31.05z"/>
	<path class="st1" d="M63.86,26.93c-0.65,0.62-1.32,1.25-1.98,1.85c-0.76,0.71-1.52,1.43-2.27,2.14c-0.03,0.03-0.05,0.05-0.11,0.06
		c1.69-6.07,3.38-12.15,5.06-18.21c0.06,0.03,0.06,0.08,0.09,0.12c0.64,1.28,1.29,2.57,1.93,3.85c0.02,0.05,0.05,0.09,0.08,0.14
		c0.08,0,0.09,0.06,0.11,0.11c0.06,0.11,0.11,0.23,0.17,0.33c0.74,1.44,1.46,2.89,2.17,4.33c0.12,0.26,0.14,0.26-0.08,0.46
		c-0.61,0.58-1.22,1.16-1.84,1.73c-0.18,0.17-0.35,0.33-0.53,0.5c-0.44,0.43-0.88,0.84-1.32,1.26c-0.44,0.43-0.9,0.85-1.35,1.28
		C63.97,26.91,63.94,26.96,63.86,26.93z"/>
	<path class="st2" d="M63.86,26.93c0.84-0.79,1.67-1.58,2.51-2.39c0.9-0.85,1.79-1.69,2.69-2.54c0.09-0.09,0.11-0.15,0.05-0.26
		c-0.81-1.58-1.6-3.18-2.4-4.77c-0.02-0.03-0.03-0.08-0.05-0.11c0.38-1.35,0.76-2.72,1.14-4.09c0.06,0.02,0.08,0.08,0.09,0.12
		c1.49,2.95,2.96,5.9,4.45,8.85c0.06,0.11,0.05,0.17-0.05,0.26c-1.96,1.84-3.91,3.69-5.87,5.55c-1.2,1.13-2.39,2.27-3.59,3.39
		c-0.02,0.02-0.05,0.05-0.11,0.09c0.08-0.27,0.14-0.52,0.21-0.76c0.3-1.08,0.59-2.14,0.9-3.22C63.85,27.02,63.86,26.97,63.86,26.93z
		"/>
	<path class="st0" d="M20.08,34.83C20,34.3,19.71,34,19.19,33.92c-0.49-0.08-0.97-0.03-1.47-0.05c-0.08,0-0.08,0.05-0.09,0.11
		c-0.03,0.14-0.06,0.27-0.09,0.41c-0.21,0.9-0.43,1.79-0.64,2.69c-0.03,0.12,0,0.14,0.11,0.14c0.18,0,0.38,0,0.56,0l0,0
		c0.06,0,0.12,0,0.18,0c0.35,0,0.7,0,1.02-0.12C19.59,36.78,20.21,35.71,20.08,34.83z M19.09,36.31c-0.23,0.26-0.52,0.4-0.87,0.41
		c-0.2,0.02-0.4,0-0.59,0.02c-0.09,0-0.12-0.02-0.09-0.12c0.17-0.71,0.35-1.43,0.52-2.14c0.02-0.06,0.05-0.11,0.12-0.09
		c0.11,0,0.21,0,0.33,0c0.14,0,0.29,0,0.44,0.03c0.33,0.06,0.55,0.27,0.58,0.59C19.54,35.49,19.41,35.93,19.09,36.31z"/>
	<path class="st0" d="M56.7,35.68c0.58-0.11,0.84-0.53,0.9-1.03c0.06-0.43-0.15-0.68-0.56-0.76c-0.18-0.03-0.36-0.02-0.53-0.02
		c-0.15,0-0.27,0.02-0.4,0c-0.14-0.02-0.18,0.03-0.21,0.17c-0.21,0.94-0.44,1.89-0.67,2.83c-0.08,0.33-0.08,0.33,0.27,0.33
		c0.12,0,0.17-0.05,0.18-0.15c0.09-0.41,0.2-0.81,0.29-1.22c0.02-0.05,0-0.11,0.06-0.11c0.06-0.02,0.06,0.06,0.08,0.09
		c0.17,0.33,0.35,0.65,0.47,0.99c0.12,0.32,0.3,0.46,0.64,0.4c0.15-0.03,0.15,0,0.09-0.15c-0.21-0.43-0.43-0.85-0.64-1.26
		C56.64,35.76,56.6,35.7,56.7,35.68z M56.6,35.27c-0.09,0.02-0.18,0.02-0.29,0.03c-0.18,0-0.18,0-0.14-0.18
		c0.05-0.23,0.11-0.46,0.17-0.67c0.02-0.08,0.06-0.11,0.14-0.11c0.14,0,0.26,0.02,0.4,0.05c0.09,0.03,0.15,0.08,0.18,0.17
		C57.13,34.86,56.9,35.21,56.6,35.27z"/>
	<path class="st0" d="M67.82,33.87c0.26,0,0.53,0,0.79,0c0.11,0,0.12,0.03,0.09,0.12c-0.08,0.33-0.08,0.33-0.43,0.33
		c-0.27,0-0.55,0-0.84,0c-0.09,0-0.12,0.03-0.15,0.12c-0.05,0.2-0.09,0.4-0.14,0.59c-0.03,0.11,0,0.12,0.11,0.12
		c0.33,0,0.68,0,1.02,0c0.11,0,0.14,0.02,0.11,0.14c-0.09,0.35-0.08,0.35-0.44,0.35c-0.27,0-0.55,0-0.82,0
		c-0.09,0-0.12,0.02-0.15,0.11c-0.06,0.27-0.12,0.56-0.2,0.84c-0.03,0.11,0.02,0.14,0.11,0.14c0.33,0,0.67,0,1,0
		c0.11,0,0.14,0.02,0.11,0.14c-0.09,0.35-0.08,0.35-0.46,0.35c-0.44,0-0.88,0-1.32,0c-0.11,0-0.12-0.02-0.11-0.14
		c0.26-1.03,0.5-2.07,0.75-3.1c0.02-0.08,0.05-0.11,0.14-0.11C67.28,33.87,67.56,33.87,67.82,33.87z"/>
	<path class="st0" d="M34.08,37.2c-0.26,0-0.52,0-0.78,0c-0.09,0-0.14-0.02-0.11-0.12c0.26-1.03,0.5-2.07,0.74-3.1
		c0.02-0.09,0.06-0.12,0.15-0.11c0.52,0,1.05,0,1.57,0c0.11,0,0.12,0.03,0.11,0.14c-0.08,0.33-0.08,0.33-0.41,0.33
		c-0.29,0-0.56,0-0.85,0c-0.09,0-0.12,0.03-0.14,0.11c-0.05,0.2-0.09,0.41-0.15,0.61c-0.03,0.09,0,0.12,0.09,0.12
		c0.33,0,0.68,0,1.02,0c0.11,0,0.14,0.03,0.12,0.14c-0.08,0.33-0.08,0.35-0.43,0.35c-0.27,0-0.55,0-0.84,0
		c-0.08,0-0.12,0.03-0.14,0.11c-0.06,0.29-0.14,0.56-0.2,0.85c-0.03,0.11,0.02,0.12,0.11,0.12c0.33,0,0.68,0,1.02,0
		c0.11,0,0.12,0.03,0.11,0.14c-0.09,0.35-0.08,0.35-0.44,0.35C34.44,37.2,34.26,37.2,34.08,37.2z"/>
	<path class="st0" d="M53.63,37.2c-0.26,0-0.53,0-0.79,0c-0.09,0-0.12-0.02-0.09-0.12c0.26-1.03,0.5-2.07,0.74-3.12
		c0.02-0.08,0.05-0.11,0.14-0.11c0.53,0,1.05,0,1.58,0c0.11,0,0.12,0.02,0.09,0.12c-0.08,0.33-0.08,0.33-0.43,0.33
		c-0.27,0-0.55,0-0.84,0c-0.09,0-0.14,0.03-0.15,0.11c-0.05,0.2-0.09,0.4-0.14,0.59c-0.03,0.11,0.02,0.14,0.11,0.12
		c0.33,0,0.67,0,1,0c0.11,0,0.15,0.02,0.12,0.14c-0.09,0.35-0.08,0.35-0.44,0.35c-0.27,0-0.55,0-0.82,0c-0.09,0-0.12,0.03-0.15,0.12
		c-0.06,0.27-0.12,0.55-0.2,0.82c-0.03,0.11-0.02,0.15,0.11,0.14c0.33,0,0.67,0,0.99,0c0.11,0,0.15,0.02,0.12,0.14
		c-0.09,0.35-0.08,0.35-0.43,0.35C54,37.2,53.81,37.2,53.63,37.2z"/>
	<path class="st0" d="M16.14,33.87c0.26,0,0.53,0,0.79,0c0.11,0,0.11,0.03,0.09,0.12c-0.08,0.35-0.08,0.35-0.43,0.35
		c-0.27,0-0.55,0-0.84,0c-0.08,0-0.12,0.02-0.14,0.11c-0.05,0.2-0.09,0.41-0.15,0.61c-0.03,0.09,0,0.12,0.09,0.12
		c0.35,0,0.68,0,1.03,0c0.09,0,0.12,0.02,0.11,0.12c-0.09,0.35-0.08,0.35-0.44,0.35c-0.27,0-0.55,0-0.82,0
		c-0.09,0-0.12,0.03-0.14,0.11c-0.06,0.27-0.12,0.55-0.2,0.82c-0.03,0.12-0.02,0.15,0.11,0.15c0.33,0,0.67,0,0.99,0
		c0.11,0,0.14,0.03,0.11,0.14c-0.09,0.35-0.08,0.35-0.43,0.35c-0.44,0-0.9,0-1.34,0c-0.12,0-0.14-0.03-0.11-0.14
		c0.24-1.03,0.5-2.05,0.74-3.09c0.02-0.09,0.06-0.12,0.15-0.11C15.61,33.87,15.88,33.87,16.14,33.87z"/>
	<path class="st0" d="M62.6,37.07c-0.17-0.79-0.33-1.58-0.52-2.39c-0.06-0.3-0.14-0.59-0.2-0.94c-0.81,1.17-1.6,2.31-2.4,3.47
		c0.17,0,0.3,0,0.44,0c0.09,0,0.14-0.03,0.18-0.09c0.14-0.23,0.29-0.44,0.44-0.65c0.05-0.08,0.09-0.11,0.18-0.11
		c0.35,0,0.7,0,1.05,0c0.09,0,0.14,0.03,0.15,0.12c0.03,0.2,0.08,0.4,0.11,0.61c0.02,0.09,0.05,0.15,0.15,0.14
		c0.09-0.02,0.2-0.02,0.29,0C62.6,37.22,62.62,37.17,62.6,37.07z M61.69,35.9c-0.2,0-0.41,0-0.61,0c-0.05,0-0.11,0.03-0.12-0.03
		c-0.02-0.03,0.03-0.08,0.05-0.11c0.17-0.24,0.32-0.49,0.49-0.73c0.05-0.08,0.09-0.15,0.12-0.23c0.03,0.33,0.12,0.64,0.18,0.96
		C61.83,35.88,61.79,35.91,61.69,35.9z"/>
	<path class="st0" d="M26.46,37.07c-0.17-0.74-0.32-1.51-0.49-2.25c-0.08-0.35-0.15-0.68-0.23-1.06c-0.05,0.06-0.08,0.09-0.09,0.12
		c-0.5,0.71-0.99,1.43-1.49,2.14c-0.24,0.36-0.5,0.71-0.74,1.08c-0.05,0.08-0.06,0.11,0.05,0.11c0.11,0,0.21,0,0.32,0
		c0.09,0,0.14-0.03,0.18-0.11c0.14-0.21,0.29-0.43,0.43-0.64c0.05-0.08,0.11-0.12,0.21-0.11c0.32,0,0.64,0,0.96,0
		c0.23,0,0.2-0.03,0.24,0.2c0.02,0.09,0.03,0.17,0.05,0.26c0.03,0.14,0,0.3,0.11,0.38c0.09,0.08,0.26,0.02,0.4,0.03
		C26.46,37.22,26.48,37.19,26.46,37.07z M25.61,35.9c-0.27,0-0.53,0-0.82,0c0.23-0.38,0.5-0.71,0.7-1.08c0.03,0.35,0.12,0.67,0.18,1
		C25.67,35.87,25.67,35.9,25.61,35.9z"/>
	<path class="st0" d="M23.56,33.89c-0.2-0.03-0.38-0.02-0.55-0.02c-0.18,0-0.33,0-0.49,0c-0.11,0-0.15,0.03-0.17,0.14
		c-0.23,0.96-0.46,1.9-0.68,2.84c-0.09,0.36-0.09,0.35,0.27,0.36c0.11,0,0.14-0.03,0.17-0.12c0.09-0.43,0.2-0.84,0.3-1.26
		c0.02-0.09,0.06-0.12,0.15-0.12c0.14,0,0.27,0,0.41,0c0.73,0,1.06-0.5,1.16-1.02C24.23,34.24,24.03,33.95,23.56,33.89z
		 M23.59,34.71c-0.02,0.32-0.18,0.49-0.5,0.53c-0.09,0.02-0.18,0.02-0.29,0.03c-0.21,0-0.21,0-0.15-0.21
		c0.05-0.21,0.11-0.41,0.15-0.62c0.02-0.08,0.05-0.11,0.12-0.11c0.15,0,0.29,0,0.43,0.05C23.54,34.42,23.6,34.53,23.59,34.71z"/>
	<path class="st0" d="M59.39,33.87c0.27,0,0.53,0,0.81,0c0.08,0,0.11,0.03,0.09,0.11c0,0.02,0,0.02,0,0.03
		c-0.08,0.33-0.08,0.33-0.43,0.33c-0.27,0-0.55,0-0.84,0c-0.09,0-0.12,0.03-0.15,0.12c-0.05,0.2-0.09,0.4-0.14,0.59
		c-0.02,0.09,0,0.12,0.09,0.12c0.35,0,0.68,0,1.03,0c0.11,0,0.14,0.03,0.11,0.14c-0.09,0.35-0.08,0.35-0.44,0.35
		c-0.27,0-0.55,0-0.82,0c-0.09,0-0.12,0.03-0.15,0.12c-0.11,0.44-0.21,0.9-0.32,1.34c-0.02,0.09-0.06,0.12-0.15,0.12
		c-0.11,0-0.2,0-0.3,0c-0.09,0-0.11-0.02-0.09-0.11c0.15-0.59,0.29-1.19,0.43-1.79c0.11-0.44,0.21-0.88,0.32-1.32
		c0.02-0.09,0.06-0.12,0.14-0.12C58.86,33.87,59.13,33.87,59.39,33.87z"/>
	<path class="st0" d="M12.59,34.33c-0.18,0-0.35,0-0.53,0c-0.08,0-0.12,0.02-0.14,0.09c-0.05,0.21-0.09,0.41-0.15,0.62
		c-0.02,0.09,0,0.11,0.09,0.11c0.35,0,0.68,0,1.03,0c0.12,0,0.14,0.03,0.11,0.14c-0.09,0.35-0.08,0.35-0.43,0.35
		c-0.27,0-0.55,0-0.84,0c-0.09,0-0.12,0.03-0.14,0.11c-0.11,0.44-0.21,0.88-0.32,1.32c-0.03,0.11-0.08,0.14-0.18,0.14
		c-0.08,0-0.15,0-0.21,0c-0.17,0-0.17,0-0.14-0.15c0.2-0.81,0.4-1.63,0.58-2.43c0.05-0.21,0.11-0.43,0.15-0.64
		c0.02-0.08,0.05-0.11,0.12-0.11c0.53,0,1.06,0,1.6,0c0.09,0,0.11,0.03,0.09,0.12c-0.08,0.33-0.08,0.33-0.43,0.33
		C12.81,34.33,12.7,34.33,12.59,34.33z"/>
	<path class="st0" d="M29.65,33.87c0,0.06-0.05,0.09-0.08,0.12c-0.46,0.53-0.91,1.05-1.35,1.58c-0.06,0.06-0.09,0.14-0.12,0.23
		c-0.09,0.43-0.2,0.85-0.3,1.28c-0.02,0.11-0.06,0.14-0.17,0.12c-0.12-0.02-0.29,0.06-0.36-0.03c-0.06-0.08,0.03-0.23,0.06-0.35
		c0.08-0.33,0.15-0.65,0.23-0.97c0.03-0.12,0.02-0.23-0.03-0.35c-0.18-0.5-0.36-1-0.55-1.49c-0.03-0.11-0.03-0.15,0.09-0.14
		c0.14,0.02,0.3-0.03,0.4,0.03c0.11,0.06,0.11,0.24,0.15,0.36c0.12,0.32,0.24,0.64,0.35,0.99c0.21-0.29,0.46-0.55,0.68-0.81
		c0.14-0.15,0.27-0.3,0.4-0.47c0.06-0.08,0.14-0.11,0.23-0.11C29.41,33.89,29.53,33.87,29.65,33.87z"/>
	<path class="st0" d="M40.83,33.87c0.33,0,0.67,0,0.99,0c0.11,0,0.15,0.02,0.12,0.14c-0.08,0.32-0.08,0.32-0.41,0.32
		c-0.14,0-0.27,0-0.41,0c-0.09,0-0.12,0.03-0.15,0.12c-0.2,0.84-0.4,1.67-0.59,2.51c-0.06,0.26-0.06,0.26-0.33,0.26
		c-0.26,0-0.26,0-0.2-0.24c0.2-0.84,0.4-1.66,0.59-2.49c0.03-0.12,0-0.14-0.11-0.14c-0.2,0-0.4,0-0.59,0
		c-0.11,0-0.14-0.02-0.11-0.12c0.08-0.33,0.08-0.33,0.43-0.33C40.3,33.87,40.55,33.87,40.83,33.87z"/>
	<path class="st0" d="M53.1,33.89c-0.03,0.12-0.06,0.24-0.09,0.38c-0.02,0.08-0.06,0.08-0.12,0.08c-0.2,0-0.41,0-0.61,0
		c-0.11,0-0.15,0.03-0.18,0.14c-0.2,0.85-0.4,1.7-0.61,2.54c-0.05,0.21,0,0.2-0.24,0.2c-0.08,0-0.15,0-0.21,0
		c-0.09,0-0.11-0.03-0.09-0.11c0.15-0.64,0.3-1.28,0.46-1.9c0.06-0.24,0.11-0.49,0.18-0.73c0.03-0.09,0.02-0.14-0.11-0.14
		c-0.2,0.02-0.41,0-0.61,0c-0.09,0-0.12-0.03-0.09-0.12c0.08-0.33,0.08-0.35,0.41-0.35c0.61,0,1.22,0,1.82,0
		C53.04,33.87,53.07,33.89,53.1,33.89z"/>
	<path class="st0" d="M46.5,33.87c0.27,0,0.27,0,0.21,0.26c-0.23,0.97-0.47,1.96-0.7,2.93c-0.03,0.11-0.06,0.15-0.17,0.14
		c-0.12-0.02-0.29,0.06-0.36-0.03c-0.06-0.08,0.03-0.23,0.06-0.35c0.23-0.93,0.46-1.85,0.65-2.8C46.26,33.83,46.39,33.89,46.5,33.87
		z"/>
	<path class="st0" d="M13.4,37.2c-0.26,0-0.26,0-0.2-0.26c0.23-0.99,0.47-1.96,0.7-2.95c0.03-0.11,0.06-0.14,0.17-0.12
		c0.09,0.02,0.2,0,0.29,0c0.09,0,0.11,0.02,0.09,0.11c-0.14,0.56-0.27,1.13-0.41,1.69c-0.11,0.46-0.23,0.91-0.32,1.37
		c-0.03,0.14-0.09,0.21-0.23,0.18C13.46,37.2,13.43,37.2,13.4,37.2z"/>
	<path class="st0" d="M10.51,33.87c0.26,0,0.26,0,0.2,0.26c-0.23,0.99-0.47,1.96-0.7,2.95c-0.02,0.09-0.06,0.14-0.15,0.12
		c-0.09-0.02-0.2,0-0.29,0c-0.09,0-0.12-0.03-0.09-0.12c0.14-0.56,0.27-1.13,0.41-1.69c0.11-0.44,0.21-0.9,0.32-1.34
		c0.03-0.14,0.08-0.21,0.23-0.18C10.47,33.87,10.5,33.87,10.51,33.87z"/>
</g>
</svg>
