<?xml version="1.0" encoding="utf-8"?>
<!-- Generator: Adobe Illustrator 25.2.3, SVG Export Plug-In . SVG Version: 6.00 Build 0)  -->
<svg version="1.1" id="Layer_1" xmlns="http://www.w3.org/2000/svg" xmlns:xlink="http://www.w3.org/1999/xlink" x="0px" y="0px"
	 width="40px" height="40px" viewBox="0 0 40 40" style="enable-background:new 0 0 40 40;" xml:space="preserve">
<style type="text/css">
	.st0{fill:#26A17B;}
	.st1{fill:#FFFFFF;}
</style>
<g>
	<circle class="st0" cx="20" cy="20" r="19"/>
	<g>
		<path class="st1" d="M22,21.8L22,21.8c-0.1,0-0.8,0-2.3,0c-1.2,0-2.1,0-2.4,0v0c-4.6-0.2-8.1-1-8.1-2c0-1,3.5-1.8,8.1-2v3.2
			c0.3,0,1.2,0.1,2.4,0.1c1.4,0,2.2-0.1,2.3-0.1v-3.2c4.6,0.2,8.1,1,8.1,2S26.7,21.5,22,21.8 M22,17.5v-2.8h6.5v-4.3H10.9v4.3h6.5
			v2.8c-5.3,0.2-9.2,1.3-9.2,2.5c0,1.2,3.9,2.3,9.2,2.5v9H22v-9c5.2-0.2,9.2-1.3,9.2-2.5C31.2,18.8,27.3,17.7,22,17.5"/>
	</g>
</g>
</svg>
