<?xml version="1.0" standalone="no"?>
<!DOCTYPE svg PUBLIC "-//W3C//DTD SVG 20010904//EN"
 "http://www.w3.org/TR/2001/REC-SVG-20010904/DTD/svg10.dtd">
<svg version="1.0" xmlns="http://www.w3.org/2000/svg"
 width="64.000000pt" height="64.000000pt" viewBox="0 0 64.000000 64.000000"
 preserveAspectRatio="xMidYMid meet">

<g transform="translate(0.000000,64.000000) scale(0.100000,-0.100000)"
fill="#000000" stroke="none">
<path d="M228 625 c-70 -23 -152 -102 -178 -173 -43 -112 -13 -244 72 -324
l28 -26 -21 -36 c-38 -65 -34 -66 191 -66 224 0 230 2 195 66 l-18 33 38 42
c85 94 105 223 52 331 -65 132 -219 198 -359 153z m217 -69 c126 -74 160 -243
72 -358 -40 -52 -50 -55 -67 -23 -17 32 -69 65 -104 65 -20 0 -26 5 -26 20 0
28 -44 70 -73 70 -13 0 -31 -6 -42 -13 -15 -12 -21 -11 -37 5 -10 10 -32 18
-53 18 -30 0 -35 3 -35 23 0 77 62 164 144 204 68 32 154 28 221 -11z m-305
-281 c0 -9 -7 -18 -16 -22 -18 -7 -39 11 -30 26 11 17 46 13 46 -4z m128 -18
c4 -20 -25 -34 -40 -19 -15 15 -1 44 19 40 10 -2 19 -11 21 -21z m-81 -63 c8
-21 -13 -42 -28 -27 -13 13 -5 43 11 43 6 0 13 -7 17 -16z m194 -17 c16 -12
79 -108 79 -121 0 -3 -63 -6 -141 -6 l-141 0 27 48 c40 70 68 92 118 92 23 0
49 -6 58 -13z"/>
<path d="M212 507 c-12 -13 -22 -36 -22 -51 0 -34 41 -76 75 -76 33 0 75 42
75 75 0 35 -42 75 -78 75 -17 0 -37 -9 -50 -23z m76 -50 c4 -20 -25 -34 -40
-19 -15 15 -1 44 19 40 10 -2 19 -11 21 -21z"/>
<path d="M406 379 c-36 -28 -36 -80 0 -108 54 -42 118 -13 118 54 0 67 -64 96
-118 54z m72 -52 c4 -20 -25 -34 -40 -19 -15 15 -1 44 19 40 10 -2 19 -11 21
-21z"/>
</g>
</svg>
