<?xml version="1.0" encoding="utf-8"?>
<!-- Generator: Adobe Illustrator 25.3.1, SVG Export Plug-In . SVG Version: 6.00 Build 0)  -->
<svg version="1.1" id="Layer_1" xmlns="http://www.w3.org/2000/svg" xmlns:xlink="http://www.w3.org/1999/xlink" x="0px" y="0px"
	 width="75px" height="50px" viewBox="0 0 75 50" style="enable-background:new 0 0 75 50;" xml:space="preserve">
<style type="text/css">
	.st0{fill:#4F4F51;}
	.st1{fill:#FFFFFF;}
	.st2{fill:#E8661C;}
	.st3{fill:#277F3B;}
</style>
<path id="Rectangle_2_7_" class="st0" d="M2.5,0h70C73.88,0,75,1.12,75,2.5v45c0,1.38-1.12,2.5-2.5,2.5h-70C1.12,50,0,48.88,0,47.5
	v-45C0,1.12,1.12,0,2.5,0z"/>
<g>
	<path class="st1" d="M53.29,16.91c-0.04,0.22-0.11,0.42-0.17,0.63c-0.99,3.56-1.97,7.13-2.96,10.69c-0.06,0.2-0.12,0.4-0.17,0.6
		c-0.02,0.07-0.05,0.09-0.12,0.09c-0.73,0-1.47,0-2.2,0c-0.08,0-0.1-0.01-0.08-0.1c0.3-1.08,0.6-2.16,0.9-3.24
		c0.51-1.82,1.01-3.65,1.52-5.47c0.29-1.05,0.58-2.1,0.87-3.15c0-0.02,0.01-0.03,0.01-0.05C51.7,16.91,52.5,16.91,53.29,16.91z"/>
	<path class="st1" d="M33.08,33.09c-0.09-0.38-0.17-0.76-0.26-1.14c-0.02-0.07-0.03-0.14-0.05-0.25c-0.03,0.07-0.04,0.11-0.06,0.16
		c-0.17,0.37-0.34,0.75-0.5,1.12c-0.02,0.05-0.05,0.07-0.1,0.06c-0.05,0-0.11,0-0.16,0c-0.07,0.01-0.08-0.02-0.05-0.08
		c0.23-0.49,0.45-0.97,0.67-1.46c0.11-0.24,0.22-0.48,0.34-0.72c0.12,0.54,0.25,1.08,0.35,1.64c0.38-0.55,0.75-1.1,1.12-1.64
		c0.03,0.03,0.02,0.06,0.02,0.09c-0.01,0.69-0.02,1.39-0.03,2.08c0,0.07-0.02,0.09-0.09,0.09c-0.24,0-0.24,0-0.23-0.23
		c0.01-0.36,0-0.73,0.04-1.1c-0.06,0.09-0.11,0.18-0.17,0.27c-0.25,0.34-0.49,0.68-0.74,1.03c-0.02,0.03-0.05,0.05-0.05,0.08
		C33.12,33.09,33.1,33.09,33.08,33.09z"/>
	<path class="st1" d="M38.11,33.09c-0.33-0.43-0.67-0.86-1-1.29c-0.06-0.08-0.12-0.17-0.17-0.26c-0.03,0.05-0.04,0.11-0.05,0.15
		c-0.1,0.42-0.2,0.84-0.3,1.26c-0.01,0.06-0.04,0.09-0.11,0.09c-0.24,0-0.24,0-0.18-0.23c0.15-0.64,0.31-1.29,0.46-1.93
		c0.01-0.03,0.02-0.06,0.03-0.11c0.21,0.27,0.41,0.53,0.61,0.79c0.2,0.26,0.41,0.5,0.58,0.79c0.03-0.01,0.03-0.04,0.03-0.06
		c0.11-0.45,0.22-0.89,0.32-1.34c0.02-0.07,0.04-0.1,0.12-0.09c0.07,0.01,0.17-0.03,0.21,0.02c0.03,0.04-0.02,0.13-0.04,0.2
		c-0.16,0.66-0.31,1.32-0.47,1.98c0,0.01-0.01,0.03-0.01,0.04C38.13,33.09,38.12,33.09,38.11,33.09z"/>
	<path class="st1" d="M18.51,33.09c-0.39-0.52-0.81-1.01-1.18-1.55c-0.05,0.23-0.11,0.45-0.16,0.67c-0.06,0.25-0.12,0.5-0.18,0.76
		c-0.01,0.05-0.03,0.07-0.09,0.07c-0.25,0-0.25,0.01-0.19-0.23c0.15-0.64,0.31-1.29,0.46-1.93c0.01-0.03,0.02-0.06,0.03-0.11
		c0.4,0.54,0.82,1.04,1.21,1.59c0.03-0.12,0.06-0.24,0.09-0.36c0.08-0.35,0.17-0.71,0.25-1.06c0.01-0.06,0.04-0.09,0.11-0.08
		c0.07,0.01,0.18-0.02,0.21,0.02c0.04,0.04-0.02,0.14-0.03,0.21c-0.16,0.67-0.32,1.35-0.48,2.02
		C18.53,33.09,18.52,33.09,18.51,33.09z"/>
	<path class="st1" d="M45.43,33.09c-0.08-0.14-0.19-0.26-0.29-0.39c-0.23-0.31-0.47-0.61-0.71-0.91c-0.06-0.08-0.11-0.16-0.18-0.26
		c-0.05,0.2-0.09,0.39-0.14,0.57c-0.07,0.28-0.14,0.57-0.2,0.85c-0.02,0.07-0.05,0.08-0.11,0.08c-0.23,0-0.23,0-0.18-0.22
		c0.16-0.65,0.31-1.31,0.47-1.96c0.01-0.03,0.01-0.05,0.04-0.08c0.39,0.53,0.81,1.03,1.2,1.57c0.01-0.04,0.02-0.07,0.03-0.1
		c0.1-0.43,0.21-0.87,0.31-1.3c0.02-0.08,0.05-0.1,0.13-0.1c0.22,0.01,0.22,0,0.17,0.22c-0.16,0.65-0.31,1.31-0.47,1.96
		c-0.01,0.02-0.01,0.05-0.01,0.07C45.47,33.09,45.45,33.09,45.43,33.09z"/>
	<path class="st1" d="M14.56,32.4c0.07-0.3,0.14-0.6,0.22-0.9c0.05-0.19,0.1-0.39,0.14-0.58c0.01-0.06,0.04-0.08,0.1-0.07
		c0.08,0.01,0.2-0.04,0.24,0.02c0.05,0.06-0.02,0.16-0.04,0.24c-0.09,0.37-0.18,0.74-0.26,1.12c-0.02,0.07-0.02,0.14-0.02,0.2
		c0.01,0.2,0.12,0.33,0.33,0.34c0.37,0.03,0.62-0.13,0.73-0.49c0.08-0.27,0.14-0.54,0.2-0.81c0.04-0.18,0.09-0.37,0.13-0.55
		c0.01-0.06,0.03-0.08,0.1-0.08c0.06,0.01,0.12,0.01,0.18,0c0.07-0.01,0.09,0.02,0.07,0.09c-0.07,0.28-0.14,0.56-0.2,0.84
		c-0.04,0.17-0.08,0.34-0.13,0.51c-0.12,0.43-0.37,0.72-0.82,0.8c-0.01,0-0.02,0.01-0.02,0.01c-0.15,0-0.3,0-0.45,0
		c-0.04-0.02-0.08-0.01-0.12-0.02c-0.18-0.02-0.33-0.14-0.35-0.36c0-0.03,0.01-0.06-0.01-0.09C14.56,32.55,14.56,32.48,14.56,32.4z"
		/>
	<path class="st1" d="M55,33.09c-0.05-0.01-0.09-0.03-0.14-0.04c-0.36-0.12-0.57-0.44-0.56-0.84c0.03-0.78,0.72-1.44,1.5-1.42
		c0.19,0,0.36,0.06,0.52,0.17c0.05,0.04,0.07,0.07,0.05,0.13c-0.03,0.09-0.05,0.18-0.08,0.27c-0.05-0.04-0.09-0.08-0.14-0.11
		c-0.31-0.2-0.63-0.19-0.93-0.01c-0.37,0.22-0.55,0.56-0.54,0.99c0.01,0.35,0.32,0.58,0.7,0.52c0.2-0.03,0.37-0.1,0.54-0.2
		c0.02-0.02,0.04-0.04,0.09-0.04c-0.03,0.12-0.06,0.24-0.09,0.36c-0.01,0.03-0.04,0.04-0.07,0.05c-0.13,0.08-0.28,0.11-0.43,0.16
		C55.29,33.09,55.14,33.09,55,33.09z"/>
	<path class="st1" d="M40.53,33.09c-0.05-0.02-0.11-0.04-0.15-0.07c-0.15-0.08-0.2-0.21-0.22-0.37c0-0.04,0.01-0.06,0.05-0.07
		c0.07-0.03,0.14-0.06,0.21-0.09c0.03-0.01,0.05-0.02,0.06,0.02c0.02,0.13,0.09,0.22,0.23,0.24c0.14,0.03,0.28,0.01,0.4-0.09
		c0.2-0.17,0.18-0.38-0.04-0.53c-0.09-0.06-0.19-0.12-0.29-0.18c-0.35-0.21-0.34-0.5-0.15-0.81c0.18-0.3,0.61-0.44,0.95-0.32
		c0.12,0.04,0.21,0.12,0.25,0.24c0.02,0.05,0.01,0.09-0.05,0.11c-0.03,0.01-0.06,0.03-0.1,0.05c-0.04,0.02-0.09,0.05-0.13,0.05
		c-0.05,0-0.05-0.07-0.08-0.1c-0.11-0.12-0.34-0.11-0.48,0.02c-0.14,0.13-0.14,0.29,0,0.42c0.07,0.06,0.15,0.11,0.23,0.15
		c0.09,0.05,0.18,0.11,0.26,0.18c0.12,0.11,0.16,0.24,0.13,0.4c-0.07,0.37-0.28,0.61-0.64,0.72c-0.02,0-0.03,0.01-0.05,0.02
		C40.78,33.09,40.66,33.09,40.53,33.09z"/>
	<path class="st1" d="M41.47,16.95c2.15,0,4.3,0,6.44,0c0.18,0,0.35,0.02,0.52,0.09c0.31,0.14,0.48,0.46,0.46,0.81
		c-0.02,0.26-0.11,0.5-0.18,0.75c-0.4,1.44-0.79,2.88-1.2,4.32c-0.2,0.69-0.67,1.1-1.37,1.23c-0.08,0.01-0.16,0.01-0.24,0.01
		c-3.52,0-7.04,0-10.56,0c-0.1,0-0.14,0.03-0.17,0.13c-0.42,1.53-0.85,3.06-1.27,4.6c-0.02,0.07-0.05,0.09-0.12,0.09
		c-0.73,0-1.46,0-2.19,0c-0.11,0-0.11,0-0.08-0.11c0.61-2.18,1.21-4.37,1.82-6.55c0.04-0.14,0.08-0.28,0.12-0.42
		c0.02-0.07,0.05-0.08,0.11-0.08c0.74,0,1.48,0,2.22,0c3.18,0,6.37,0,9.55,0c0.09,0,0.12-0.02,0.15-0.11
		c0.21-0.76,0.42-1.53,0.63-2.29c0.03-0.12,0.03-0.12-0.09-0.12c-3.9,0-7.8,0-11.7,0c-0.14,0-0.14,0-0.1-0.13
		c0.2-0.71,0.39-1.42,0.59-2.12c0.02-0.08,0.05-0.1,0.13-0.1C37.1,16.95,39.28,16.95,41.47,16.95z"/>
	<path class="st1" d="M22.84,28.98c-2.03,0-4.07,0-6.1,0c-0.11,0-0.23,0-0.34-0.03c-0.44-0.11-0.7-0.52-0.61-0.98
		c0.07-0.39,0.2-0.76,0.31-1.14c0.91-3.26,1.81-6.52,2.72-9.78c0.02-0.07,0.05-0.09,0.12-0.09c0.73,0,1.46,0,2.19,0
		c0.11,0,0.11,0,0.08,0.1c-0.55,1.99-1.11,3.99-1.66,5.98c-0.32,1.16-0.65,2.33-0.97,3.49c-0.03,0.1-0.03,0.1,0.08,0.1
		c3.12,0,6.25,0,9.37,0c0.08,0,0.11-0.02,0.13-0.1c0.88-3.17,1.76-6.33,2.64-9.5c0.02-0.06,0.04-0.08,0.11-0.08
		c0.74,0,1.48,0,2.22,0c0.08,0,0.09,0.02,0.07,0.09c-0.61,2.17-1.21,4.34-1.81,6.52c-0.42,1.52-0.85,3.04-1.27,4.57
		c-0.13,0.46-0.42,0.74-0.89,0.84c-0.09,0.02-0.18,0.01-0.27,0.01C26.91,28.98,24.87,28.98,22.84,28.98z"/>
	<path class="st2" d="M54.84,26.27c-0.43,0.41-0.87,0.82-1.3,1.22c-0.5,0.47-1,0.94-1.49,1.41c-0.02,0.02-0.03,0.03-0.07,0.04
		c1.11-3.99,2.22-7.99,3.33-11.98c0.04,0.02,0.04,0.05,0.06,0.08c0.42,0.84,0.85,1.69,1.27,2.53c0.01,0.03,0.03,0.06,0.05,0.09
		c0.05,0,0.06,0.04,0.07,0.07c0.04,0.07,0.07,0.15,0.11,0.22c0.49,0.95,0.96,1.9,1.43,2.85c0.08,0.17,0.09,0.17-0.05,0.3
		c-0.4,0.38-0.8,0.76-1.21,1.14c-0.12,0.11-0.23,0.22-0.35,0.33c-0.29,0.28-0.58,0.55-0.87,0.83c-0.29,0.28-0.59,0.56-0.89,0.84
		C54.91,26.26,54.89,26.29,54.84,26.27z"/>
	<path class="st3" d="M54.84,26.27c0.55-0.52,1.1-1.04,1.65-1.57c0.59-0.56,1.18-1.11,1.77-1.67c0.06-0.06,0.07-0.1,0.03-0.17
		c-0.53-1.04-1.05-2.09-1.58-3.14c-0.01-0.02-0.02-0.05-0.03-0.07c0.25-0.89,0.5-1.79,0.75-2.69c0.04,0.01,0.05,0.05,0.06,0.08
		c0.98,1.94,1.95,3.88,2.93,5.82c0.04,0.07,0.03,0.11-0.03,0.17c-1.29,1.21-2.57,2.43-3.86,3.65c-0.79,0.74-1.57,1.49-2.36,2.23
		c-0.01,0.01-0.03,0.03-0.07,0.06c0.05-0.18,0.09-0.34,0.14-0.5c0.2-0.71,0.39-1.41,0.59-2.12C54.83,26.33,54.84,26.3,54.84,26.27z"
		/>
	<path class="st1" d="M26.04,31.47c-0.05-0.35-0.24-0.55-0.58-0.6c-0.32-0.05-0.64-0.02-0.97-0.03c-0.05,0-0.05,0.03-0.06,0.07
		c-0.02,0.09-0.04,0.18-0.06,0.27c-0.14,0.59-0.28,1.18-0.42,1.77c-0.02,0.08,0,0.09,0.07,0.09c0.12,0,0.25,0,0.37,0v0
		c0.04,0,0.08,0,0.12,0c0.23,0,0.46,0,0.67-0.08C25.72,32.75,26.13,32.05,26.04,31.47z M25.39,32.44c-0.15,0.17-0.34,0.26-0.57,0.27
		c-0.13,0.01-0.26,0-0.39,0.01c-0.06,0-0.08-0.01-0.06-0.08c0.11-0.47,0.23-0.94,0.34-1.41c0.01-0.04,0.03-0.07,0.08-0.06
		c0.07,0,0.14,0,0.22,0c0.09,0,0.19,0,0.29,0.02c0.22,0.04,0.36,0.18,0.38,0.39C25.69,31.9,25.6,32.19,25.39,32.44z"/>
	<path class="st1" d="M50.13,32.03c0.38-0.07,0.55-0.35,0.59-0.68c0.04-0.28-0.1-0.45-0.37-0.5c-0.12-0.02-0.24-0.01-0.35-0.01
		c-0.1,0-0.18,0.01-0.26,0c-0.09-0.01-0.12,0.02-0.14,0.11c-0.14,0.62-0.29,1.24-0.44,1.86c-0.05,0.22-0.05,0.22,0.18,0.22
		c0.08,0,0.11-0.03,0.12-0.1c0.06-0.27,0.13-0.53,0.19-0.8c0.01-0.03,0-0.07,0.04-0.07c0.04-0.01,0.04,0.04,0.05,0.06
		c0.11,0.22,0.23,0.43,0.31,0.65c0.08,0.21,0.2,0.3,0.42,0.26c0.1-0.02,0.1,0,0.06-0.1c-0.14-0.28-0.28-0.56-0.42-0.83
		C50.09,32.08,50.06,32.04,50.13,32.03z M50.06,31.76c-0.06,0.01-0.12,0.01-0.19,0.02c-0.12,0-0.12,0-0.09-0.12
		c0.03-0.15,0.07-0.3,0.11-0.44c0.01-0.05,0.04-0.07,0.09-0.07c0.09,0,0.17,0.01,0.26,0.03c0.06,0.02,0.1,0.05,0.12,0.11
		C50.41,31.49,50.26,31.72,50.06,31.76z"/>
	<path class="st1" d="M57.44,30.84c0.17,0,0.35,0,0.52,0c0.07,0,0.08,0.02,0.06,0.08c-0.05,0.22-0.05,0.22-0.28,0.22
		c-0.18,0-0.36,0-0.55,0c-0.06,0-0.08,0.02-0.1,0.08c-0.03,0.13-0.06,0.26-0.09,0.39c-0.02,0.07,0,0.08,0.07,0.08
		c0.22,0,0.45,0,0.67,0c0.07,0,0.09,0.01,0.07,0.09c-0.06,0.23-0.05,0.23-0.29,0.23c-0.18,0-0.36,0-0.54,0
		c-0.06,0-0.08,0.01-0.1,0.07c-0.04,0.18-0.08,0.37-0.13,0.55c-0.02,0.07,0.01,0.09,0.07,0.09c0.22,0,0.44,0,0.66,0
		c0.07,0,0.09,0.01,0.07,0.09c-0.06,0.23-0.05,0.23-0.3,0.23c-0.29,0-0.58,0-0.87,0c-0.07,0-0.08-0.01-0.07-0.09
		c0.17-0.68,0.33-1.36,0.49-2.04c0.01-0.05,0.03-0.07,0.09-0.07C57.09,30.84,57.27,30.84,57.44,30.84z"/>
	<path class="st1" d="M35.25,33.03c-0.17,0-0.34,0-0.51,0c-0.06,0-0.09-0.01-0.07-0.08c0.17-0.68,0.33-1.36,0.49-2.04
		c0.01-0.06,0.04-0.08,0.1-0.07c0.34,0,0.69,0,1.03,0c0.07,0,0.08,0.02,0.07,0.09c-0.05,0.22-0.05,0.22-0.27,0.22
		c-0.19,0-0.37,0-0.56,0c-0.06,0-0.08,0.02-0.09,0.07c-0.03,0.13-0.06,0.27-0.1,0.4c-0.02,0.06,0,0.08,0.06,0.08
		c0.22,0,0.45,0,0.67,0c0.07,0,0.09,0.02,0.08,0.09c-0.05,0.22-0.05,0.23-0.28,0.23c-0.18,0-0.36,0-0.55,0
		c-0.05,0-0.08,0.02-0.09,0.07c-0.04,0.19-0.09,0.37-0.13,0.56c-0.02,0.07,0.01,0.08,0.07,0.08c0.22,0,0.45,0,0.67,0
		c0.07,0,0.08,0.02,0.07,0.09c-0.06,0.23-0.05,0.23-0.29,0.23C35.49,33.03,35.37,33.03,35.25,33.03z"/>
	<path class="st1" d="M48.11,33.03c-0.17,0-0.35,0-0.52,0c-0.06,0-0.08-0.01-0.06-0.08c0.17-0.68,0.33-1.36,0.49-2.05
		c0.01-0.05,0.03-0.07,0.09-0.07c0.35,0,0.69,0,1.04,0c0.07,0,0.08,0.01,0.06,0.08c-0.05,0.22-0.05,0.22-0.28,0.22
		c-0.18,0-0.36,0-0.55,0c-0.06,0-0.09,0.02-0.1,0.07c-0.03,0.13-0.06,0.26-0.09,0.39c-0.02,0.07,0.01,0.09,0.07,0.08
		c0.22,0,0.44,0,0.66,0c0.07,0,0.1,0.01,0.08,0.09c-0.06,0.23-0.05,0.23-0.29,0.23c-0.18,0-0.36,0-0.54,0
		c-0.06,0-0.08,0.02-0.1,0.08c-0.04,0.18-0.08,0.36-0.13,0.54c-0.02,0.07-0.01,0.1,0.07,0.09c0.22,0,0.44,0,0.65,0
		c0.07,0,0.1,0.01,0.08,0.09c-0.06,0.23-0.05,0.23-0.28,0.23C48.35,33.03,48.23,33.03,48.11,33.03z"/>
	<path class="st1" d="M23.45,30.84c0.17,0,0.35,0,0.52,0c0.07,0,0.07,0.02,0.06,0.08c-0.05,0.23-0.05,0.23-0.28,0.23
		c-0.18,0-0.36,0-0.55,0c-0.05,0-0.08,0.01-0.09,0.07c-0.03,0.13-0.06,0.27-0.1,0.4c-0.02,0.06,0,0.08,0.06,0.08
		c0.23,0,0.45,0,0.68,0c0.06,0,0.08,0.01,0.07,0.08c-0.06,0.23-0.05,0.23-0.29,0.23c-0.18,0-0.36,0-0.54,0
		c-0.06,0-0.08,0.02-0.09,0.07c-0.04,0.18-0.08,0.36-0.13,0.54c-0.02,0.08-0.01,0.1,0.07,0.1c0.22,0,0.44,0,0.65,0
		c0.07,0,0.09,0.02,0.07,0.09c-0.06,0.23-0.05,0.23-0.28,0.23c-0.29,0-0.59,0-0.88,0c-0.08,0-0.09-0.02-0.07-0.09
		c0.16-0.68,0.33-1.35,0.49-2.03c0.01-0.06,0.04-0.08,0.1-0.07C23.1,30.84,23.28,30.84,23.45,30.84z"/>
	<path class="st1" d="M54.01,32.94c-0.11-0.52-0.22-1.04-0.34-1.57c-0.04-0.2-0.09-0.39-0.13-0.62c-0.53,0.77-1.05,1.52-1.58,2.28
		c0.11,0,0.2,0,0.29,0c0.06,0,0.09-0.02,0.12-0.06c0.09-0.15,0.19-0.29,0.29-0.43c0.03-0.05,0.06-0.07,0.12-0.07
		c0.23,0,0.46,0,0.69,0c0.06,0,0.09,0.02,0.1,0.08c0.02,0.13,0.05,0.26,0.07,0.4c0.01,0.06,0.03,0.1,0.1,0.09
		c0.06-0.01,0.13-0.01,0.19,0C54.01,33.04,54.02,33.01,54.01,32.94z M53.41,32.17c-0.13,0-0.27,0-0.4,0c-0.03,0-0.07,0.02-0.08-0.02
		c-0.01-0.02,0.02-0.05,0.03-0.07c0.11-0.16,0.21-0.32,0.32-0.48c0.03-0.05,0.06-0.1,0.08-0.15c0.02,0.22,0.08,0.42,0.12,0.63
		C53.5,32.16,53.48,32.18,53.41,32.17z"/>
	<path class="st1" d="M30.24,32.94c-0.11-0.49-0.21-0.99-0.32-1.48c-0.05-0.23-0.1-0.45-0.15-0.7c-0.03,0.04-0.05,0.06-0.06,0.08
		c-0.33,0.47-0.65,0.94-0.98,1.41c-0.16,0.24-0.33,0.47-0.49,0.71c-0.03,0.05-0.04,0.07,0.03,0.07c0.07,0,0.14,0,0.21,0
		c0.06,0,0.09-0.02,0.12-0.07c0.09-0.14,0.19-0.28,0.28-0.42c0.03-0.05,0.07-0.08,0.14-0.07c0.21,0,0.42,0,0.63,0
		c0.15,0,0.13-0.02,0.16,0.13c0.01,0.06,0.02,0.11,0.03,0.17c0.02,0.09,0,0.2,0.07,0.25c0.06,0.05,0.17,0.01,0.26,0.02
		C30.24,33.04,30.25,33.02,30.24,32.94z M29.68,32.17c-0.18,0-0.35,0-0.54,0c0.15-0.25,0.33-0.47,0.46-0.71
		c0.02,0.23,0.08,0.44,0.12,0.66C29.72,32.15,29.72,32.17,29.68,32.17z"/>
	<path class="st1" d="M28.33,30.85c-0.13-0.02-0.25-0.01-0.36-0.01c-0.12,0-0.22,0-0.32,0c-0.07,0-0.1,0.02-0.11,0.09
		c-0.15,0.63-0.3,1.25-0.45,1.87c-0.06,0.24-0.06,0.23,0.18,0.24c0.07,0,0.09-0.02,0.11-0.08c0.06-0.28,0.13-0.55,0.2-0.83
		c0.01-0.06,0.04-0.08,0.1-0.08c0.09,0,0.18,0,0.27,0c0.48,0,0.7-0.33,0.76-0.67C28.77,31.08,28.64,30.89,28.33,30.85z M28.35,31.39
		c-0.01,0.21-0.12,0.32-0.33,0.35c-0.06,0.01-0.12,0.01-0.19,0.02c-0.14,0-0.14,0-0.1-0.14c0.03-0.14,0.07-0.27,0.1-0.41
		c0.01-0.05,0.03-0.07,0.08-0.07c0.1,0,0.19,0,0.28,0.03C28.32,31.2,28.36,31.27,28.35,31.39z"/>
	<path class="st1" d="M51.9,30.84c0.18,0,0.35,0,0.53,0c0.05,0,0.07,0.02,0.06,0.07c0,0.01,0,0.01,0,0.02
		c-0.05,0.22-0.05,0.22-0.28,0.22c-0.18,0-0.36,0-0.55,0c-0.06,0-0.08,0.02-0.1,0.08c-0.03,0.13-0.06,0.26-0.09,0.39
		c-0.01,0.06,0,0.08,0.06,0.08c0.23,0,0.45,0,0.68,0c0.07,0,0.09,0.02,0.07,0.09c-0.06,0.23-0.05,0.23-0.29,0.23
		c-0.18,0-0.36,0-0.54,0c-0.06,0-0.08,0.02-0.1,0.08c-0.07,0.29-0.14,0.59-0.21,0.88c-0.01,0.06-0.04,0.08-0.1,0.08
		c-0.07,0-0.13,0-0.2,0c-0.06,0-0.07-0.01-0.06-0.07c0.1-0.39,0.19-0.78,0.28-1.18c0.07-0.29,0.14-0.58,0.21-0.87
		c0.01-0.06,0.04-0.08,0.09-0.08C51.55,30.84,51.73,30.84,51.9,30.84z"/>
	<path class="st1" d="M21.12,31.14c-0.12,0-0.23,0-0.35,0c-0.05,0-0.08,0.01-0.09,0.06c-0.03,0.14-0.06,0.27-0.1,0.41
		c-0.01,0.06,0,0.07,0.06,0.07c0.23,0,0.45,0,0.68,0c0.08,0,0.09,0.02,0.07,0.09c-0.06,0.23-0.05,0.23-0.28,0.23
		c-0.18,0-0.36,0-0.55,0c-0.06,0-0.08,0.02-0.09,0.07c-0.07,0.29-0.14,0.58-0.21,0.87c-0.02,0.07-0.05,0.09-0.12,0.09
		c-0.05,0-0.1,0-0.14,0c-0.11,0-0.11,0-0.09-0.1c0.13-0.53,0.26-1.07,0.38-1.6c0.03-0.14,0.07-0.28,0.1-0.42
		c0.01-0.05,0.03-0.07,0.08-0.07c0.35,0,0.7,0,1.05,0c0.06,0,0.07,0.02,0.06,0.08c-0.05,0.22-0.05,0.22-0.28,0.22
		C21.26,31.14,21.19,31.14,21.12,31.14z"/>
	<path class="st1" d="M32.34,30.84c0,0.04-0.03,0.06-0.05,0.08c-0.3,0.35-0.6,0.69-0.89,1.04c-0.04,0.04-0.06,0.09-0.08,0.15
		c-0.06,0.28-0.13,0.56-0.2,0.84c-0.01,0.07-0.04,0.09-0.11,0.08c-0.08-0.01-0.19,0.04-0.24-0.02c-0.04-0.05,0.02-0.15,0.04-0.23
		c0.05-0.22,0.1-0.43,0.15-0.64c0.02-0.08,0.01-0.15-0.02-0.23c-0.12-0.33-0.24-0.66-0.36-0.98c-0.02-0.07-0.02-0.1,0.06-0.09
		c0.09,0.01,0.2-0.02,0.26,0.02c0.07,0.04,0.07,0.16,0.1,0.24c0.08,0.21,0.16,0.42,0.23,0.65c0.14-0.19,0.3-0.36,0.45-0.53
		c0.09-0.1,0.18-0.2,0.26-0.31c0.04-0.05,0.09-0.07,0.15-0.07C32.18,30.85,32.26,30.84,32.34,30.84z"/>
	<path class="st1" d="M39.69,30.84c0.22,0,0.44,0,0.65,0c0.07,0,0.1,0.01,0.08,0.09c-0.05,0.21-0.05,0.21-0.27,0.21
		c-0.09,0-0.18,0-0.27,0c-0.06,0-0.08,0.02-0.1,0.08c-0.13,0.55-0.26,1.1-0.39,1.65c-0.04,0.17-0.04,0.17-0.22,0.17
		c-0.17,0-0.17,0-0.13-0.16c0.13-0.55,0.26-1.09,0.39-1.64c0.02-0.08,0-0.09-0.07-0.09c-0.13,0-0.26,0-0.39,0
		c-0.07,0-0.09-0.01-0.07-0.08c0.05-0.22,0.05-0.22,0.28-0.22C39.34,30.84,39.51,30.84,39.69,30.84z"/>
	<path class="st1" d="M47.76,30.85c-0.02,0.08-0.04,0.16-0.06,0.25c-0.01,0.05-0.04,0.05-0.08,0.05c-0.13,0-0.27,0-0.4,0
		c-0.07,0-0.1,0.02-0.12,0.09c-0.13,0.56-0.26,1.12-0.4,1.67c-0.03,0.14,0,0.13-0.16,0.13c-0.05,0-0.1,0-0.14,0
		c-0.06,0-0.07-0.02-0.06-0.07c0.1-0.42,0.2-0.84,0.3-1.25c0.04-0.16,0.07-0.32,0.12-0.48c0.02-0.06,0.01-0.09-0.07-0.09
		c-0.13,0.01-0.27,0-0.4,0c-0.06,0-0.08-0.02-0.06-0.08c0.05-0.22,0.05-0.23,0.27-0.23c0.4,0,0.8,0,1.2,0
		C47.72,30.84,47.74,30.85,47.76,30.85z"/>
	<path class="st1" d="M43.42,30.84c0.18,0,0.18,0,0.14,0.17c-0.15,0.64-0.31,1.29-0.46,1.93c-0.02,0.07-0.04,0.1-0.11,0.09
		c-0.08-0.01-0.19,0.04-0.24-0.02c-0.04-0.05,0.02-0.15,0.04-0.23c0.15-0.61,0.3-1.22,0.43-1.84
		C43.26,30.81,43.35,30.85,43.42,30.84z"/>
	<path class="st1" d="M21.65,33.03c-0.17,0-0.17,0-0.13-0.17c0.15-0.65,0.31-1.29,0.46-1.94c0.02-0.07,0.04-0.09,0.11-0.08
		c0.06,0.01,0.13,0,0.19,0c0.06,0,0.07,0.01,0.06,0.07c-0.09,0.37-0.18,0.74-0.27,1.11c-0.07,0.3-0.15,0.6-0.21,0.9
		c-0.02,0.09-0.06,0.14-0.15,0.12C21.69,33.03,21.67,33.03,21.65,33.03z"/>
	<path class="st1" d="M19.75,30.84c0.17,0,0.17,0,0.13,0.17c-0.15,0.65-0.31,1.29-0.46,1.94c-0.01,0.06-0.04,0.09-0.1,0.08
		c-0.06-0.01-0.13,0-0.19,0c-0.06,0-0.08-0.02-0.06-0.08c0.09-0.37,0.18-0.74,0.27-1.11c0.07-0.29,0.14-0.59,0.21-0.88
		c0.02-0.09,0.05-0.14,0.15-0.12C19.72,30.84,19.74,30.84,19.75,30.84z"/>
</g>
</svg>
