<?xml version="1.0" encoding="utf-8"?>
<!-- Generator: Adobe Illustrator 25.3.1, SVG Export Plug-In . SVG Version: 6.00 Build 0)  -->
<svg version="1.1" id="Layer_1" xmlns="http://www.w3.org/2000/svg" xmlns:xlink="http://www.w3.org/1999/xlink" x="0px" y="0px"
	 width="75px" height="50px" viewBox="0 0 75 50" style="enable-background:new 0 0 75 50;" xml:space="preserve">
<style type="text/css">
	.st0{fill:#01BAF1;}
	.st1{fill:#FFFFFF;}
	.st2{fill:#063070;}
</style>
<path id="Rectangle_2_13_" class="st0" d="M2.5,0h70C73.88,0,75,1.12,75,2.5v45c0,1.38-1.12,2.5-2.5,2.5h-70C1.12,50,0,48.88,0,47.5
	v-45C0,1.12,1.12,0,2.5,0z"/>
<g>
	<path class="st1" d="M52.44,20.22c1.52-1.05,3-1.02,4.44,0.1c0.25,0.2,0.34,0.02,0.48-0.09c1.88-1.5,4.62-0.72,5.4,1.54
		c0.1,0.3,0.15,0.6,0.15,0.91c0,3.17,0,6.33,0,9.5c0,0.53-0.14,0.67-0.68,0.67c-0.62,0-1.24,0-1.86,0c-0.6,0-0.75-0.15-0.75-0.74
		c0-2.79,0-5.57,0-8.36c0-0.68-0.3-0.98-0.98-0.98c-0.68,0-0.98,0.3-0.98,0.98c0,2.8,0,5.6,0,8.4c0,0.59-0.13,0.71-0.72,0.71
		c-0.64,0-1.27,0-1.91,0c-0.51,0-0.66-0.14-0.66-0.64c-0.01-1.98-0.01-3.97-0.02-5.95c0-0.86,0-1.72,0-2.57c0-0.62-0.3-0.9-0.96-0.9
		c-0.69,0-0.99,0.27-0.99,0.91c0,2.8,0,5.6,0,8.4c0,0.62-0.13,0.75-0.73,0.75c-0.64,0-1.27,0-1.91,0c-0.48,0-0.65-0.16-0.65-0.62
		c0-4.01,0-8.02,0-12.03c0-0.45,0.17-0.61,0.61-0.61c0.65-0.01,1.3,0,1.95,0C52.25,19.58,52.34,19.66,52.44,20.22z"/>
	<path class="st2" d="M30.03,27.18c0,1.39,0,2.78,0,4.18c0,0.96-0.52,1.47-1.5,1.47c-1.33,0-2.65,0-3.98,0
		c-1.87,0-3.09-1.16-3.15-3.01c-0.03-0.95-0.03-1.91,0-2.87c0.05-1.59,1.16-2.77,2.74-2.98c0.61-0.08,1.21-0.06,1.82-0.06
		c0.58,0,0.7-0.1,0.71-0.58c0-0.47-0.16-0.61-0.73-0.61c-0.85,0-1.69,0-2.54,0c-0.52,0-0.68-0.16-0.68-0.68c0-0.62,0-1.24,0-1.86
		c0-0.37,0.19-0.57,0.54-0.56c1.27,0.01,2.54-0.08,3.81,0.05c1.97,0.21,2.96,1.32,2.97,3.3C30.04,24.37,30.03,25.78,30.03,27.18z
		 M24.72,28.45c0,0.04,0,0.08,0,0.13c-0.05,1.45,0.11,1.32,1.4,1.31c0.4,0,0.59-0.21,0.6-0.6c0.01-0.34-0.01-0.67,0-1.01
		c0.04-1.36-0.03-1.31-1.43-1.29c-0.01,0-0.03,0-0.04,0c-0.35,0.04-0.53,0.23-0.53,0.58C24.72,27.86,24.72,28.15,24.72,28.45z"/>
	<path class="st2" d="M39.77,24.99c0,1.49,0,2.98,0,4.47c0,2.08-1.35,3.43-3.44,3.43c-1.14,0-2.29,0-3.43,0
		c-0.56,0-0.7-0.13-0.7-0.7c0-0.65-0.01-1.29,0-1.94c0-0.48,0.15-0.62,0.64-0.63c0.93,0,1.86,0.01,2.79,0
		c0.64-0.01,0.87-0.17,0.86-0.56c-0.01-0.37-0.24-0.5-0.86-0.51c-0.59-0.01-1.19,0.06-1.77-0.05c-1.64-0.3-2.64-1.53-2.67-3.3
		c-0.02-1.64-0.01-3.29,0-4.94c0-0.51,0.18-0.67,0.7-0.68c0.61,0,1.21,0,1.82,0c0.64,0,0.79,0.14,0.79,0.8c0,1.36,0,2.73,0,4.09
		c0,0.68,0.12,0.8,0.82,0.8c1.16,0,1.17,0,1.17-1.14c0-1.29,0-2.59,0-3.88c0-0.51,0.16-0.67,0.68-0.68c0.65,0,1.3-0.01,1.95,0
		c0.48,0,0.66,0.18,0.66,0.67C39.78,21.84,39.77,23.41,39.77,24.99z"/>
	<path class="st2" d="M20.62,22.72c0-1.89-1.23-3.11-3.13-3.13c-1.58-0.01-3.16,0-4.74,0c-0.52,0-0.67,0.16-0.67,0.68
		c0,1.98,0,3.96,0,5.94v5.9c0,0.66,0.08,0.74,0.72,0.74c0.62,0,1.24,0,1.86,0c0.57,0,0.71-0.14,0.71-0.73
		c0-0.94,0.01-1.88-0.01-2.82c-0.01-0.3,0.09-0.38,0.38-0.37c0.63,0.02,1.27,0.01,1.9,0c1.55-0.02,2.72-1.03,2.92-2.56
		C20.72,25.17,20.62,23.94,20.62,22.72z M17.32,25.09c-0.01,0.34-0.19,0.55-0.55,0.56c-0.45,0.01-1,0.15-1.31-0.05
		c-0.09-0.06-0.13-0.18-0.13-0.32c0-0.02,0-0.04,0-0.06v-1.94h0c0-0.15,0.03-0.27,0.13-0.32c0.35-0.2,0.9-0.08,1.36-0.06
		c0.32,0.02,0.5,0.24,0.51,0.56C17.33,24,17.33,24.55,17.32,25.09z"/>
	<path class="st1" d="M42.91,27.8c0-1.5-0.01-3.01,0.01-4.51c0-0.34-0.1-0.44-0.43-0.41c-0.29,0.03-0.59,0.01-0.89,0
		c-0.35-0.01-0.56-0.17-0.56-0.54c0-0.73,0-1.46,0-2.19c0-0.37,0.2-0.55,0.55-0.55c1.25,0.02,2.15-0.54,2.81-1.57
		c0.23-0.37,0.51-0.71,0.93-0.89c0.47-0.2,0.78-0.02,0.79,0.5c0.01,0.52,0.03,1.04-0.01,1.56c-0.02,0.35,0.11,0.43,0.43,0.4
		c0.25-0.02,0.51-0.01,0.76,0c0.42,0.01,0.6,0.18,0.61,0.59c0.01,0.7,0.01,1.41,0,2.11c-0.01,0.41-0.19,0.58-0.6,0.59
		c-0.28,0.01-0.57,0.02-0.85,0c-0.26-0.02-0.34,0.06-0.33,0.33c0.01,1.2,0.01,2.39,0.01,3.59c0,1.8,0,3.6,0,5.4
		c0,0.62-0.12,0.75-0.73,0.75c-0.59,0-1.19,0-1.78,0c-0.61,0-0.72-0.12-0.72-0.71C42.91,30.76,42.91,29.28,42.91,27.8z"/>
</g>
</svg>
