<?xml version="1.0" encoding="utf-8"?>
<!-- Generator: Adobe Illustrator 25.3.1, SVG Export Plug-In . SVG Version: 6.00 Build 0)  -->
<svg version="1.1" id="Layer_1" xmlns="http://www.w3.org/2000/svg" xmlns:xlink="http://www.w3.org/1999/xlink" x="0px" y="0px"
	 width="75px" height="50px" viewBox="0 0 75 50" style="enable-background:new 0 0 75 50;" xml:space="preserve">
<style type="text/css">
	.st0{fill:#4F4F51;}
	.st1{fill:#FFFFFF;}
	.st2{fill:#F4791F;}
	.st3{fill:#008B45;}
</style>
<path id="Rectangle_2_4_" class="st0" d="M2.5,0h70C73.88,0,75,1.12,75,2.5v45c0,1.38-1.12,2.5-2.5,2.5h-70C1.12,50,0,48.88,0,47.5
	v-45C0,1.12,1.12,0,2.5,0z"/>
<g>
	<path class="st1" d="M49.31,28.31c-1.87,0-3.74,0-5.61,0c-0.12,0-0.12,0-0.09-0.12c0.16-0.59,0.33-1.17,0.48-1.76
		c0.03-0.1,0.06-0.13,0.17-0.13c3.33,0,6.66,0,9.99,0.01c0.1,0,0.14-0.02,0.17-0.12c0.17-0.62,0.34-1.24,0.51-1.85
		c0.03-0.1,0-0.11-0.09-0.11c-2.97-0.02-5.94,0-8.91-0.01c-0.14,0-0.28,0.01-0.41-0.02c-0.42-0.09-0.66-0.45-0.56-0.89
		c0.11-0.48,0.25-0.95,0.38-1.42c0.26-0.93,0.52-1.87,0.77-2.8c0.16-0.59,0.74-1.06,1.39-1.06c3.7,0.01,7.39,0,11.09,0
		c0.13,0,0.13,0,0.09,0.12c-0.16,0.59-0.33,1.18-0.49,1.77c-0.02,0.09-0.06,0.12-0.16,0.12c-3.31,0-6.61,0-9.92,0
		c-0.22,0-0.22,0-0.28,0.21c-0.17,0.61-0.34,1.22-0.51,1.83c-0.03,0.09-0.02,0.12,0.08,0.12c3.01,0,6.02,0,9.03,0
		c0.1,0,0.21-0.01,0.31,0.02c0.41,0.09,0.65,0.46,0.54,0.89c-0.14,0.55-0.29,1.09-0.44,1.63c-0.24,0.85-0.48,1.71-0.71,2.56
		c-0.16,0.59-0.79,1.04-1.36,1.03C52.98,28.3,51.15,28.31,49.31,28.31z"/>
	<path class="st1" d="M18.39,22.76c-0.15,0.53-0.28,1.03-0.42,1.53c-0.36,1.31-0.72,2.62-1.08,3.93c-0.02,0.07-0.05,0.09-0.13,0.09
		c-0.62,0-1.24,0-1.85,0c-0.09,0-0.1-0.02-0.08-0.1c0.54-1.94,1.07-3.87,1.61-5.81c0.4-1.43,0.79-2.85,1.19-4.28
		c0.01-0.03,0-0.08,0.05-0.09c0.04,0,0.05,0.04,0.06,0.07c1.25,2.07,2.5,4.13,3.75,6.2c0.17,0.29,0.35,0.57,0.52,0.86
		c0.04,0.07,0.07,0.07,0.13,0.02c1.69-1.43,3.38-2.85,5.06-4.28c1.11-0.94,2.22-1.87,3.33-2.81c0.02-0.02,0.03-0.04,0.06-0.04
		c0.02,0.03,0,0.06-0.01,0.09c-0.74,2.66-1.47,5.32-2.21,7.98c-0.19,0.69-0.38,1.39-0.57,2.08c-0.02,0.08-0.06,0.1-0.14,0.1
		c-0.61,0-1.21,0-1.82,0c-0.13,0-0.13,0-0.09-0.12c0.44-1.58,0.87-3.16,1.31-4.74c0-0.01,0-0.01,0-0.04
		c-0.16,0.15-0.31,0.29-0.47,0.42c-1.56,1.43-3.13,2.86-4.69,4.29c-0.03,0.03-0.07,0.06-0.1,0.09c-0.13,0.12-0.13,0.12-0.22-0.03
		c-1.04-1.78-2.08-3.55-3.12-5.33C18.43,22.83,18.42,22.81,18.39,22.76z"/>
	<path class="st1" d="M38.22,18.01c1.85,0,3.7,0,5.55,0c0.4,0,0.67,0.18,0.77,0.51c0.05,0.18,0.03,0.35-0.01,0.52
		c-0.38,1.37-0.76,2.74-1.14,4.11c-0.16,0.56-0.55,0.89-1.1,1.02c-0.12,0.03-0.25,0.02-0.38,0.02c-2.96,0-5.91,0-8.87,0
		c-0.01,0-0.01,0-0.02,0c-0.12-0.02-0.17,0.03-0.2,0.15c-0.35,1.29-0.71,2.58-1.07,3.86c-0.02,0.07-0.05,0.1-0.12,0.1
		c-0.62,0-1.24,0-1.85,0c-0.1,0-0.1-0.03-0.08-0.11c0.42-1.51,0.84-3.01,1.26-4.52c0.13-0.46,0.26-0.92,0.38-1.38
		c0.02-0.09,0.06-0.12,0.16-0.12c2.38,0,4.76,0.01,7.14,0c0.95,0,1.91,0,2.86-0.01c0.08,0,0.12-0.02,0.14-0.1
		c0.18-0.65,0.36-1.31,0.54-1.96c0.02-0.07,0.01-0.09-0.06-0.09c-0.05,0-0.1,0-0.15,0c-3.29,0-6.58,0-9.87,0
		c-0.13,0-0.13,0-0.09-0.13c0.16-0.59,0.33-1.18,0.49-1.77c0.03-0.09,0.07-0.12,0.16-0.12C34.5,18.01,36.36,18.01,38.22,18.01z"/>
	<path class="st1" d="M10.73,28.29c0.09-0.32,0.18-0.64,0.27-0.97c0.75-2.69,1.49-5.38,2.24-8.07c0.11-0.38,0.21-0.76,0.32-1.15
		c0.01-0.04,0.02-0.09,0.09-0.09c0.65,0,1.3,0,1.95,0c0.01,0,0.02,0,0.04,0.01c-0.09,0.31-0.17,0.63-0.26,0.94
		c-0.61,2.19-1.21,4.38-1.82,6.57c-0.24,0.88-0.49,1.76-0.73,2.65c-0.02,0.09-0.06,0.12-0.15,0.12c-0.61,0-1.21,0-1.82,0
		C10.81,28.31,10.77,28.32,10.73,28.29z"/>
	<path class="st2" d="M60.38,26.02c-0.3,0.28-0.61,0.57-0.91,0.85c-0.49,0.46-0.97,0.92-1.46,1.38c-0.02,0.02-0.04,0.03-0.08,0.07
		c0.95-3.43,1.9-6.83,2.85-10.27c0.11,0.22,0.2,0.41,0.3,0.6c0.28,0.55,0.56,1.11,0.84,1.66c0.01,0.02,0.02,0.03,0.03,0.04
		c0.05,0.02,0.06,0.07,0.08,0.11c0.44,0.87,0.87,1.74,1.31,2.62c0.06,0.12,0.05,0.12-0.04,0.21c-0.16,0.14-0.3,0.29-0.45,0.43
		c-0.36,0.34-0.72,0.68-1.08,1.03c-0.39,0.37-0.79,0.74-1.18,1.12C60.52,25.92,60.46,25.99,60.38,26.02z"/>
	<path class="st3" d="M60.38,26.02c0.31-0.3,0.62-0.59,0.93-0.89c0.67-0.63,1.34-1.26,2.01-1.89c0.04-0.04,0.04-0.07,0.01-0.12
		c-0.44-0.87-0.87-1.74-1.31-2.61c-0.03-0.05-0.05-0.11-0.07-0.16c0.21-0.76,0.42-1.52,0.64-2.28c0.04,0.02,0.05,0.05,0.06,0.08
		c0.83,1.65,1.66,3.29,2.49,4.94c0.03,0.07,0.03,0.11-0.03,0.16c-1.23,1.16-2.46,2.33-3.69,3.49c-0.53,0.51-1.07,1.01-1.61,1.52
		c-0.01,0.01-0.03,0.02-0.06,0.05C59.97,27.54,60.17,26.78,60.38,26.02z"/>
	<path class="st1" d="M39.8,29.95c-0.02,0.42-0.04,0.85-0.06,1.27c-0.01,0.21-0.02,0.41-0.03,0.62c0,0.06-0.02,0.07-0.07,0.07
		c-0.22,0-0.22,0.01-0.21-0.21c0.01-0.31,0.02-0.62,0.06-0.92c-0.3,0.4-0.61,0.79-0.93,1.21c-0.09-0.42-0.17-0.82-0.25-1.22
		c-0.17,0.34-0.34,0.67-0.5,1.01c-0.04,0.09-0.09,0.14-0.19,0.12c-0.05-0.01-0.09,0-0.16,0c0.34-0.67,0.67-1.32,1.01-2
		c0.09,0.5,0.19,0.96,0.27,1.45c0.35-0.48,0.7-0.95,1.04-1.42C39.79,29.94,39.79,29.94,39.8,29.95z"/>
	<path class="st1" d="M16.52,29.95c-0.02,0.45-0.04,0.89-0.06,1.34c-0.01,0.18-0.02,0.37-0.02,0.55c0,0.06-0.02,0.07-0.07,0.07
		c-0.22,0-0.22,0.01-0.21-0.21c0.02-0.31,0.02-0.61,0.06-0.93c-0.3,0.42-0.61,0.81-0.93,1.22c-0.09-0.42-0.17-0.82-0.25-1.22
		c-0.17,0.34-0.33,0.67-0.49,1c-0.05,0.1-0.11,0.15-0.22,0.13c-0.04-0.01-0.08,0-0.14,0c0.34-0.67,0.66-1.32,0.99-1.97
		c0.01,0,0.01,0,0.02,0c0.09,0.47,0.18,0.94,0.26,1.41c0.35-0.47,0.69-0.94,1.03-1.41C16.5,29.94,16.51,29.94,16.52,29.95z"/>
	<path class="st1" d="M11.94,30.77c-0.17,0.35-0.34,0.69-0.5,1.03c-0.04,0.08-0.09,0.12-0.18,0.11c-0.05-0.01-0.1,0-0.17,0
		c0.34-0.66,0.66-1.32,1.01-2c0.1,0.5,0.19,0.96,0.27,1.45c0.35-0.48,0.69-0.94,1.05-1.42c0.03,0.09,0.01,0.17,0.01,0.25
		c-0.02,0.54-0.05,1.08-0.07,1.62c0,0.08-0.02,0.11-0.11,0.11c-0.19-0.01-0.19,0-0.18-0.19c0.02-0.31,0.02-0.62,0.06-0.94
		c-0.31,0.4-0.61,0.79-0.93,1.21C12.1,31.57,12.02,31.18,11.94,30.77z"/>
	<path class="st1" d="M21.51,30.54c-0.03-0.28-0.18-0.45-0.45-0.51c-0.3-0.06-0.61-0.03-0.92-0.03c-0.04,0-0.04,0.03-0.05,0.06
		c-0.17,0.6-0.33,1.19-0.5,1.79c-0.01,0.05-0.01,0.07,0.05,0.07c0.12,0,0.25,0,0.37,0c0.22,0,0.43,0.01,0.64-0.06
		C21.17,31.69,21.57,31.08,21.51,30.54z M20.8,31.48c-0.17,0.14-0.38,0.15-0.56,0.15c-0.27,0-0.26,0-0.2-0.23
		c0.1-0.34,0.19-0.69,0.29-1.03c0.02-0.06,0.04-0.09,0.11-0.08c0.14,0.01,0.28-0.01,0.42,0.02c0.2,0.04,0.33,0.16,0.33,0.37
		C21.17,30.99,21.06,31.27,20.8,31.48z"/>
	<path class="st1" d="M44.43,31.98c-0.34-0.46-0.7-0.9-1.03-1.37c-0.09,0.31-0.17,0.62-0.26,0.93c-0.02,0.06-0.03,0.11-0.05,0.17
		c-0.06,0.2-0.06,0.2-0.26,0.2c-0.08,0-0.09-0.02-0.07-0.09c0.13-0.47,0.26-0.94,0.39-1.41c0.04-0.16,0.09-0.31,0.14-0.49
		c0.35,0.46,0.7,0.9,1.04,1.38c0.06-0.2,0.11-0.39,0.16-0.59c0.06-0.21,0.12-0.42,0.17-0.64c0.02-0.06,0.04-0.08,0.1-0.08
		c0.21,0,0.21,0,0.16,0.2c-0.16,0.58-0.32,1.15-0.48,1.73C44.45,31.94,44.44,31.95,44.43,31.98z"/>
	<path class="st1" d="M55.1,30.43c0.04-0.22-0.07-0.38-0.29-0.42c-0.2-0.03-0.4-0.01-0.59-0.02c-0.07,0-0.09,0.02-0.11,0.08
		c-0.15,0.55-0.3,1.1-0.45,1.64c-0.05,0.19-0.05,0.18,0.15,0.19c0.08,0,0.11-0.02,0.13-0.1c0.02-0.1,0.05-0.2,0.08-0.3
		c0.04-0.15,0.09-0.3,0.13-0.46c0.04,0.03,0.05,0.06,0.06,0.09c0.11,0.23,0.22,0.46,0.32,0.7c0.02,0.04,0.03,0.08,0.09,0.08
		c0.1,0,0.19,0,0.31,0c-0.14-0.29-0.27-0.57-0.41-0.86C54.86,30.96,55.04,30.78,55.1,30.43z M54.56,30.77
		c-0.07,0.02-0.13,0.03-0.19,0.03c-0.15,0.01-0.15,0.01-0.12-0.12c0.03-0.12,0.07-0.24,0.1-0.35c0.01-0.05,0.03-0.07,0.08-0.06
		c0.03,0,0.06,0,0.09,0c0.1,0.02,0.22,0,0.24,0.15C54.78,30.56,54.68,30.73,54.56,30.77z"/>
	<path class="st1" d="M17.86,31.63c0.23,0,0.44,0,0.65,0c0.08,0,0.11,0.01,0.08,0.1c-0.06,0.18-0.05,0.19-0.25,0.19
		c-0.26,0-0.53,0-0.79,0c-0.06,0-0.09,0-0.07-0.08c0.17-0.58,0.33-1.17,0.49-1.76c0.02-0.06,0.04-0.08,0.1-0.08c0.3,0,0.6,0,0.9,0
		c0.07,0,0.09,0.01,0.07,0.09C19,30.26,19,30.26,18.81,30.26c-0.16,0-0.32,0-0.49,0c-0.06,0-0.1,0.01-0.11,0.08
		c-0.02,0.11-0.06,0.22-0.09,0.32c-0.02,0.06-0.01,0.08,0.06,0.08c0.19,0,0.39,0,0.58,0c0.07,0,0.1,0,0.07,0.09
		c-0.06,0.19-0.05,0.19-0.25,0.19c-0.16,0-0.32,0-0.48,0c-0.06,0-0.09,0.01-0.11,0.07C17.97,31.26,17.91,31.43,17.86,31.63z"/>
	<path class="st1" d="M62.14,31.62c0.25,0,0.5,0,0.74,0c0,0.01,0,0.02,0,0.03c-0.05,0.26-0.05,0.26-0.31,0.26c-0.27,0-0.55,0-0.83,0
		c0.14-0.49,0.27-0.97,0.4-1.45c0.04-0.13,0.07-0.26,0.11-0.4c0.01-0.04,0.02-0.07,0.07-0.07c0.34,0,0.67,0,1.01,0
		c0,0.02,0,0.03,0,0.04c-0.05,0.23-0.05,0.23-0.28,0.23c-0.15,0-0.3,0-0.45,0c-0.06,0-0.09,0.01-0.1,0.08
		c-0.02,0.11-0.05,0.21-0.09,0.31c-0.03,0.09,0.01,0.09,0.08,0.09c0.19,0,0.38,0,0.56,0c0.06,0,0.09,0,0.07,0.08
		c-0.06,0.2-0.05,0.2-0.26,0.2c-0.16,0-0.32,0-0.49,0c-0.04,0-0.07,0-0.08,0.05C62.24,31.25,62.19,31.43,62.14,31.62z"/>
	<path class="st1" d="M40.64,31.91c0.08-0.28,0.15-0.54,0.22-0.81c0.09-0.34,0.19-0.68,0.28-1.02c0.01-0.05,0.03-0.09,0.1-0.08
		c0.31,0.01,0.61,0,0.92,0c0.07,0,0.07,0.02,0.06,0.08c-0.05,0.19-0.05,0.19-0.24,0.19c-0.17,0-0.33,0-0.5,0
		c-0.06,0-0.08,0.02-0.09,0.07c-0.03,0.11-0.05,0.22-0.09,0.32c-0.02,0.07,0,0.08,0.07,0.08c0.19,0,0.39,0,0.58,0
		c0.06,0,0.08,0.01,0.06,0.08c-0.06,0.2-0.05,0.2-0.26,0.2c-0.16,0-0.32,0-0.49,0c-0.04,0-0.07,0-0.09,0.06
		c-0.04,0.16-0.09,0.33-0.13,0.49c-0.02,0.05-0.01,0.07,0.05,0.07c0.2,0,0.4,0,0.61,0c0.07,0,0.08,0.02,0.06,0.08
		c-0.05,0.2-0.05,0.2-0.26,0.2C41.23,31.91,40.94,31.91,40.64,31.91z"/>
	<path class="st1" d="M51.38,31.91c0.17-0.63,0.34-1.24,0.51-1.85c0.01-0.04,0.02-0.07,0.07-0.07c0.34,0,0.68,0,1.01,0
		c0,0.01,0,0.01,0,0.02c-0.05,0.25-0.05,0.25-0.31,0.25c-0.14,0-0.29,0-0.43,0c-0.06,0-0.09,0.01-0.1,0.08
		c-0.02,0.11-0.05,0.21-0.09,0.31c-0.03,0.07-0.01,0.09,0.06,0.09c0.19,0,0.39,0,0.58,0c0.07,0,0.08,0.02,0.06,0.08
		c-0.05,0.2-0.05,0.2-0.25,0.2c-0.16,0-0.32,0-0.49,0c-0.06,0-0.08,0.01-0.1,0.07c-0.04,0.16-0.08,0.31-0.13,0.47
		c-0.02,0.06,0,0.08,0.06,0.08c0.22,0,0.44,0,0.66,0c0,0.01,0.01,0.02,0.01,0.03c-0.06,0.26-0.06,0.26-0.33,0.26
		C51.92,31.91,51.66,31.91,51.38,31.91z"/>
	<path class="st1" d="M28.68,30.74c0.26,0,0.5,0,0.74,0c-0.04,0.28-0.04,0.28-0.3,0.28c-0.15,0-0.3,0-0.46,0
		c-0.04,0-0.07,0-0.08,0.05c-0.02,0.07-0.04,0.14-0.06,0.21c-0.03,0.11-0.06,0.23-0.09,0.35c0.22,0,0.43,0,0.63,0
		c0.09,0,0.13,0,0.09,0.11c-0.06,0.17-0.05,0.17-0.23,0.17c-0.27,0-0.53,0-0.8,0c-0.08,0-0.09-0.02-0.07-0.1
		c0.16-0.58,0.32-1.16,0.48-1.74c0.01-0.05,0.03-0.08,0.1-0.08c0.3,0,0.61,0,0.91,0c0.07,0,0.08,0.02,0.06,0.09
		c-0.05,0.18-0.05,0.18-0.23,0.18c-0.16,0-0.33,0-0.49,0c-0.06,0-0.1,0.01-0.11,0.08C28.76,30.47,28.72,30.6,28.68,30.74z"/>
	<path class="st1" d="M25.26,31.81c-0.09-0.45-0.17-0.9-0.25-1.35c-0.03-0.18-0.07-0.35-0.11-0.55c-0.5,0.67-0.98,1.32-1.48,1.99
		c0.09,0,0.16-0.01,0.22,0c0.08,0.01,0.13-0.02,0.18-0.09c0.07-0.12,0.16-0.22,0.24-0.33c0.04-0.05,0.08-0.07,0.14-0.07
		c0.14,0,0.27,0,0.41,0c0.25,0,0.25,0,0.29,0.25c0.04,0.24,0.04,0.24,0.28,0.24C25.27,31.91,25.28,31.88,25.26,31.81z M24.76,31.16
		c-0.14,0-0.29,0-0.45,0c0.13-0.21,0.29-0.39,0.42-0.59c0.02,0.18,0.06,0.35,0.09,0.53C24.83,31.15,24.81,31.16,24.76,31.16z"/>
	<path class="st1" d="M61.13,30.46c-0.47-0.47-1.31-0.14-1.45,0.57c-0.09,0.47,0.24,0.74,0.74,0.6c0.15-0.04,0.29-0.11,0.44-0.21
		c-0.03,0.12-0.06,0.22-0.09,0.33c-0.01,0.04-0.05,0.05-0.08,0.07c-0.28,0.14-0.58,0.18-0.88,0.1c-0.35-0.1-0.54-0.44-0.47-0.83
		c0.12-0.68,0.74-1.18,1.42-1.14c0.15,0.01,0.28,0.06,0.4,0.14c0.05,0.03,0.07,0.07,0.04,0.13C61.18,30.3,61.16,30.38,61.13,30.46z"
		/>
	<path class="st1" d="M35.02,31.81c-0.09-0.45-0.17-0.9-0.25-1.35c-0.03-0.17-0.07-0.35-0.1-0.54c-0.5,0.67-0.98,1.32-1.48,1.99
		c0.09,0,0.17-0.01,0.24,0c0.07,0.01,0.12-0.02,0.16-0.08c0.08-0.11,0.16-0.22,0.24-0.33c0.04-0.06,0.08-0.08,0.15-0.08
		c0.13,0.01,0.26,0,0.39,0c0.27,0,0.27,0,0.31,0.26c0.04,0.23,0.04,0.23,0.27,0.23C35.02,31.91,35.04,31.89,35.02,31.81z
		 M34.5,31.16c-0.14-0.01-0.27,0-0.43,0c0.13-0.22,0.3-0.39,0.42-0.6c0.01,0.18,0.05,0.34,0.08,0.51
		C34.58,31.13,34.58,31.16,34.5,31.16z"/>
	<path class="st1" d="M49.39,31.41c0.04,0.2,0.15,0.28,0.36,0.26c0.18-0.02,0.33-0.18,0.32-0.34c-0.01-0.09-0.07-0.15-0.14-0.2
		c-0.1-0.06-0.2-0.12-0.29-0.18c-0.21-0.15-0.26-0.33-0.15-0.57c0.15-0.34,0.57-0.52,0.93-0.4c0.06,0.02,0.11,0.05,0.15,0.1
		c0.1,0.12,0.09,0.18-0.05,0.24c-0.02,0.01-0.05,0.02-0.07,0.03c-0.05,0.03-0.09,0.04-0.13-0.03c-0.06-0.11-0.17-0.12-0.29-0.09
		c-0.13,0.03-0.21,0.11-0.25,0.23c-0.03,0.11,0.03,0.18,0.12,0.24c0.06,0.05,0.13,0.08,0.2,0.12c0.35,0.2,0.4,0.43,0.18,0.77
		c-0.19,0.29-0.58,0.44-0.91,0.33c-0.17-0.05-0.27-0.17-0.27-0.34c0-0.05,0.01-0.08,0.06-0.1C49.25,31.47,49.32,31.44,49.39,31.41z"
		/>
	<path class="st1" d="M32.91,30.01c-0.22-0.04-0.43,0-0.65-0.02c-0.07,0-0.1,0.03-0.11,0.09c-0.07,0.26-0.14,0.51-0.21,0.77
		c-0.1,0.35-0.19,0.69-0.29,1.05c0.07,0,0.14-0.01,0.2,0c0.08,0.01,0.1-0.03,0.12-0.1c0.06-0.22,0.12-0.44,0.18-0.66
		c0.02-0.08,0.06-0.11,0.14-0.1c0.09,0.01,0.19,0,0.28-0.01c0.36-0.04,0.61-0.31,0.63-0.67C33.21,30.17,33.11,30.05,32.91,30.01z
		 M32.7,30.74c-0.03,0.01-0.05,0.03-0.08,0.03c-0.11,0.02-0.24,0.07-0.32,0.01c-0.05-0.04,0.04-0.17,0.05-0.27
		c0.01-0.04,0.03-0.08,0.04-0.12c0.01-0.09,0.05-0.14,0.12-0.12c0.06,0.01,0.09,0.01,0.12,0.01c0.1,0.01,0.21,0.01,0.24,0.14
		C32.88,30.52,32.8,30.68,32.7,30.74z"/>
	<path class="st1" d="M57.67,30c-0.47,0.67-0.93,1.32-1.41,1.99c-0.05-0.29-0.09-0.56-0.13-0.83c-0.05-0.36-0.1-0.72-0.16-1.08
		C55.95,30,55.98,30,56.04,29.99c0.25,0,0.25,0,0.28,0.24c0.04,0.34,0.11,0.68,0.13,1.03c0.26-0.37,0.52-0.73,0.76-1.1
		c0.09-0.13,0.18-0.19,0.33-0.17C57.58,30,57.61,30,57.67,30z"/>
	<path class="st1" d="M37.51,30c-0.3,0.33-0.59,0.64-0.87,0.95c-0.05,0.06-0.09,0.12-0.11,0.19c-0.06,0.23-0.13,0.46-0.19,0.7
		c-0.01,0.05-0.04,0.07-0.09,0.07c-0.08,0-0.16,0-0.25,0c0.07-0.26,0.14-0.51,0.21-0.76c0.02-0.08,0.02-0.15-0.01-0.23
		c-0.11-0.3-0.21-0.6-0.32-0.92c0.11,0,0.2,0,0.3,0c0.05,0,0.05,0.04,0.06,0.07c0.08,0.23,0.15,0.46,0.24,0.69
		c0.07-0.08,0.14-0.15,0.2-0.22c0.13-0.14,0.27-0.28,0.39-0.43c0.07-0.09,0.15-0.13,0.27-0.12C37.39,30,37.44,30,37.51,30z"/>
	<path class="st1" d="M47.23,30c0,0.01,0,0.01,0,0.02c-0.05,0.25-0.05,0.25-0.3,0.25c-0.27,0-0.27,0-0.34,0.26
		c-0.12,0.43-0.24,0.86-0.35,1.29c-0.02,0.08-0.06,0.1-0.13,0.1c-0.07-0.01-0.14,0-0.21,0c0.1-0.36,0.2-0.71,0.29-1.06
		c0.05-0.17,0.09-0.34,0.14-0.51c0.02-0.06,0.01-0.08-0.06-0.08c-0.12,0.01-0.24,0-0.36,0c-0.06,0-0.06-0.02-0.05-0.07
		C45.9,30,45.9,30,46.09,30C46.47,30,46.85,30,47.23,30z"/>
	<path class="st1" d="M26.27,30.26c0-0.01,0-0.02,0-0.02C26.3,30,26.3,30,26.54,30c0.36,0,0.73,0,1.1,0c0,0.08-0.04,0.15-0.05,0.22
		c-0.01,0.05-0.05,0.04-0.08,0.04c-0.12,0-0.23,0.01-0.35,0c-0.07,0-0.1,0.03-0.11,0.09c-0.13,0.48-0.27,0.96-0.39,1.44
		c-0.02,0.09-0.06,0.13-0.16,0.12c-0.19-0.01-0.19,0-0.14-0.19c0.13-0.45,0.25-0.91,0.38-1.36c0.02-0.08,0.01-0.1-0.07-0.1
		C26.53,30.26,26.4,30.26,26.27,30.26z"/>
	<path class="st1" d="M23.09,30c-0.07,0.24-0.13,0.48-0.2,0.72c-0.1,0.37-0.21,0.73-0.3,1.1c-0.02,0.07-0.04,0.1-0.12,0.1
		c-0.22-0.01-0.22,0-0.16-0.21c0.15-0.54,0.3-1.08,0.45-1.62c0.02-0.06,0.04-0.08,0.1-0.08C22.93,30,23,30,23.09,30z"/>
	<path class="st1" d="M58.81,30c-0.09,0.31-0.17,0.6-0.25,0.9c-0.09,0.31-0.17,0.62-0.26,0.93c-0.02,0.06-0.04,0.09-0.11,0.09
		c-0.24,0-0.24,0-0.17-0.23c0.15-0.53,0.3-1.06,0.44-1.59c0.02-0.08,0.05-0.11,0.13-0.1C58.66,30,58.73,30,58.81,30z"/>
	<path class="st1" d="M10.01,31.91c-0.19,0-0.19,0-0.14-0.15c0.15-0.55,0.31-1.11,0.46-1.66c0.02-0.08,0.06-0.1,0.14-0.1
		c0.21,0.01,0.21,0,0.15,0.2c-0.14,0.52-0.29,1.04-0.43,1.56C10.16,31.86,10.13,31.96,10.01,31.91z"/>
</g>
</svg>
