<svg id="Layer_1" data-name="Layer 1" xmlns="http://www.w3.org/2000/svg" xmlns:xlink="http://www.w3.org/1999/xlink" viewBox="0 0 114 114"><defs><style>.cls-1{fill:none;}.cls-2{clip-path:url(#clip-path);}.cls-3{clip-path:url(#clip-path-2);}.cls-4{fill:#fff;}.cls-5{fill:#f0953e;}.cls-6{fill:#3b8916;}.cls-7{fill:#16007e;}</style><clipPath id="clip-path"><circle class="cls-1" cx="57" cy="57" r="56.85"/></clipPath><clipPath id="clip-path-2"><rect class="cls-1" x="-101.48" y="-35.44" width="316.95" height="184.89"/></clipPath></defs><g class="cls-2"><g id="INDIA"><g class="cls-3"><rect class="cls-4" x="-101.48" y="-35.44" width="316.95" height="184.89"/><rect class="cls-5" x="-101.48" y="-35.44" width="316.95" height="61.64"/><rect class="cls-6" x="-101.48" y="87.84" width="316.95" height="61.6"/><g class="cls-3"><path class="cls-7" d="M57,29.3A27.72,27.72,0,1,0,84.74,57,27.72,27.72,0,0,0,57,29.3M57,32l-.7,13.94L57,53.86l.7-7.93L57,32c.73,0,1.44,0,2.14.11,0,0,0,0,0,.07a1.19,1.19,0,0,0,1.14,1.22,1.16,1.16,0,0,0,1.13-1,21,21,0,0,1,2.05.48L59.18,46.12,57.81,54l2.77-7.52,3-13.61c.66.22,1.33.4,2,.66a1.24,1.24,0,0,0-.09.41,1.15,1.15,0,0,0,2.21.44c.63.3,1.24.63,1.87,1L61.92,47l-3.35,7.31,4.63-6.53,6.36-12.4c.57.33,1.16.7,1.75,1.07a1.19,1.19,0,0,0-.26.74,1.15,1.15,0,0,0,1.17,1.14,1,1,0,0,0,.9-.48c.55.48,1.07,1,1.55,1.44L64.34,48.63l-5.11,6.16,6.14-5.09,9.36-10.37c.47.52,1,1,1.4,1.55a1.11,1.11,0,0,0-.41.89,1.15,1.15,0,0,0,1.13,1.14,1.07,1.07,0,0,0,.68-.22,19.24,19.24,0,0,1,1.12,1.77L66.26,50.8l-6.53,4.65L67,52.13l11.71-7.64c.39.67.7,1.37,1,2a1.28,1.28,0,0,0-.7,1.11,1.15,1.15,0,0,0,1.13,1.14.87.87,0,0,0,.44-.11c.22.66.43,1.29.59,1.95L67.53,53.42l-7.47,2.77,7.86-1.33L81.2,50.62c.17.59.33,1.33.46,2a1.12,1.12,0,0,0-1,1.14,1.17,1.17,0,0,0,1.17,1.15h.11A20.26,20.26,0,0,1,82,57L68.1,56.3l-8,.7,8,.77L82,57a20.36,20.36,0,0,1-.07,2.1h-.11a1.19,1.19,0,0,0-1.17,1.14,1.18,1.18,0,0,0,1,1.15c-.13.7-.27,1.36-.44,2l-4.74-1.52-8.54-2.76-7.86-1.33h0l7.47,2.77,13.63,2.91a12,12,0,0,1-.63,2l-.14,0h-.26A1.13,1.13,0,0,0,79,66.59a.78.78,0,0,0,.11.44h0a.8.8,0,0,0,.31.45h0s.06,0,.09,0h0s.08.08.11.08h0a.13.13,0,0,1,.08.07c-.3.63-.63,1.26-1,1.85L67,61.94h0l-7.25-3.32h0l3.8,2.66,2.69,1.92h0l12.39,6.34a20,20,0,0,1-1.14,1.81,1.3,1.3,0,0,0-.66-.18,1.1,1.1,0,0,0-1.15,1.1,1,1,0,0,0,.43.89c-.46.51-.93,1-1.4,1.51L65.37,64.34l-6.12-5.09,5.09,6.16,10.33,9.33a14.74,14.74,0,0,1-1.49,1.37,1.09,1.09,0,0,0-.72-.26A1.17,1.17,0,0,0,71.31,77a1.47,1.47,0,0,0,.09.52c-.6.37-1.23.78-1.84,1.18L63.2,66.3l-4.63-6.57h0L61.91,67l7.58,11.73c-.61.33-1.22.66-1.85,1a1.06,1.06,0,0,0-1-.7,1.17,1.17,0,0,0-1.16,1.14,1.68,1.68,0,0,0,.07.44,19.74,19.74,0,0,1-2,.59l-3-13.65L57.81,60.1v0l1.37,7.86L63.46,81.2a13.91,13.91,0,0,1-2.05.44,1.19,1.19,0,0,0-1.13-1,1.12,1.12,0,0,0-1.14,1.11v.15c-.7.07-1.4.11-2.1.11l.7-13.91-.74-8-.72,8L57,82.05c-.74,0-1.42,0-2.14-.11v-.15a1.14,1.14,0,0,0-1.16-1.11,1.21,1.21,0,0,0-1.13,1,18.52,18.52,0,0,1-2-.44l4.28-13.28,1.33-7.82L53.4,67.51,50.49,81.16c-.66-.15-1.33-.37-2-.59a1.38,1.38,0,0,0,.09-.44A1.17,1.17,0,0,0,47.45,79a1.22,1.22,0,0,0-1.09.7c-.61-.3-1.24-.63-1.85-1L52.09,67l3.32-7.27L50.8,66.26,44.46,78.69c-.61-.4-1.22-.77-1.79-1.18a1,1,0,0,0,.22-.63,1.16,1.16,0,0,0-1.12-1.18,1.07,1.07,0,0,0-.89.45,19.1,19.1,0,0,1-1.55-1.41L49.7,65.41l5.09-6.16h0l-6.15,5.09L39.29,74.67c-.51-.48-1-1-1.44-1.51a1.24,1.24,0,0,0,.45-.93,1.12,1.12,0,0,0-1.15-1.1,1.35,1.35,0,0,0-.68.18,15.66,15.66,0,0,1-1.12-1.77l12.43-6.38,6.47-4.54L47,61.94,35.31,69.51a20,20,0,0,1-.94-1.85,1.08,1.08,0,0,0,.74-1,1.15,1.15,0,0,0-1.17-1.18,1,1,0,0,0-.47.11c-.23-.63-.45-1.33-.65-2l13.65-2.91L54,57.85l-7.89,1.33L32.8,63.46c-.18-.67-.31-1.33-.46-2.07a1.11,1.11,0,0,0,1-1.11,1.15,1.15,0,0,0-1.15-1.14h-.13c0-.66-.09-1.37-.09-2.1l13.93.73,8-.77-8-.7L32,57c0-.66.06-1.4.09-2.06h.21a1.13,1.13,0,0,0,1.14-1.15,1.15,1.15,0,0,0-1.07-1.14c.15-.66.28-1.4.46-2l13.28,4.24L54,56.19l-7.5-2.77L32.82,50.51c.2-.7.42-1.37.65-2a1.84,1.84,0,0,0,.42.07A1.14,1.14,0,0,0,35,47.45a1.11,1.11,0,0,0-.68-1c.3-.66.61-1.29,1-1.92L47,52.13l7.29,3.32L47.78,50.8,35.35,44.46c.35-.59.73-1.18,1.14-1.81a.91.91,0,0,0,.68.26,1.17,1.17,0,0,0,1.15-1.14,1.44,1.44,0,0,0-.43-.93c.43-.51.89-1,1.38-1.51L48.63,49.7l6.16,5.09L49.7,48.63,39.33,39.29c.52-.48,1-1,1.55-1.4a1.09,1.09,0,0,0,.89.44,1.16,1.16,0,0,0,1.16-1.18,1.37,1.37,0,0,0-.24-.7c.59-.33,1.16-.74,1.77-1.07l6.34,12.4,4.61,6.49L52.09,47,44.51,35.35c.61-.37,1.22-.7,1.83-1a1.16,1.16,0,0,0,1.07.74A1.13,1.13,0,0,0,48.55,34a1.57,1.57,0,0,0-.07-.48c.64-.26,1.35-.44,2-.66l2.95,13.61L56.21,54l-1.35-7.85L50.58,32.84a19.35,19.35,0,0,1,2-.48,1.14,1.14,0,0,0,1.12,1,1.16,1.16,0,0,0,1.17-1.18v-.11A20.45,20.45,0,0,1,57,32"/><path class="cls-4" d="M57,52.87A4.15,4.15,0,1,1,52.87,57,4.15,4.15,0,0,1,57,52.87"/><path class="cls-7" d="M57,53.83A3.18,3.18,0,0,1,60.23,57,3.22,3.22,0,1,1,57,53.83"/></g></g></g></g></svg>